<?xml version="1.0" encoding="utf-8"?>
<!-- Generator: Adobe Illustrator 15.0.0, SVG Export Plug-In . SVG Version: 6.00 Build 0)  -->
<!DOCTYPE svg PUBLIC "-//W3C//DTD SVG 1.1//EN" "http://www.w3.org/Graphics/SVG/1.1/DTD/svg11.dtd">
<svg version="1.1" id="Layer_1" xmlns="http://www.w3.org/2000/svg" xmlns:xlink="http://www.w3.org/1999/xlink" x="0px" y="0px"
	 width="170.581px" height="57.258px" viewBox="0 0 170.581 57.258" style="enable-background:new 0 0 170.581 57.258;"
	 xml:space="preserve">
<style type="text/css">
<![CDATA[
	.st0{fill:#F4D11E;}
	.st1{fill:#333333;}
]]>
</style>
<g>
	<g>
		<path class="st1" d="M42.882,32.197c-0.026-5.813-0.849-11.35-2.692-16.721c-0.242-0.704-0.652-1.121-1.363-1.371
			c-4.358-1.521-8.84-2.406-13.443-2.687c-6.73-0.411-13.311,0.381-19.706,2.584c-0.751,0.26-1.199,0.694-1.46,1.461
			c-1.528,4.483-2.35,9.095-2.583,13.823C1.31,35.873,2.123,42.292,4.24,48.543c0.239,0.706,0.653,1.134,1.362,1.377
			c4.185,1.444,8.484,2.28,12.896,2.581c6.953,0.477,13.729-0.363,20.322-2.659c0.701-0.245,1.125-0.654,1.373-1.364
			C42.062,43.158,42.85,37.668,42.882,32.197z"/>
		<g>
			<polygon class="st0" points="11.564,33.208 17.25,27.252 15.156,25.246 7.546,33.214 15.16,41.107 17.253,39.101 			"/>
			<path class="st0" d="M27.305,19.752h-2.971L17.141,44.19h2.969L27.305,19.752z"/>
			<polygon class="st0" points="29.287,25.246 27.193,27.252 32.88,33.208 27.191,39.101 29.283,41.107 36.897,33.214 			"/>
		</g>
	</g>
	<path class="st1" d="M63.936,20.005c-0.766-0.809-1.693-1.458-2.756-1.926c-1.066-0.473-2.261-0.709-3.545-0.709
		c-1.279,0-2.497,0.235-3.62,0.701c-1.119,0.465-2.104,1.105-2.933,1.906s-1.493,1.758-1.978,2.848
		c-0.485,1.098-0.731,2.287-0.731,3.533v0.914h3.884v-0.914c0-0.721,0.137-1.378,0.417-2.008c0.281-0.628,0.672-1.177,1.161-1.634
		c0.5-0.467,1.083-0.845,1.73-1.124c0.63-0.271,1.326-0.408,2.068-0.408c1.485,0,2.639,0.481,3.522,1.473
		c0.914,1.021,1.357,2.232,1.357,3.701v2.75c-0.427,0.163-0.954,0.355-1.574,0.578c-0.961,0.344-1.951,0.708-2.975,1.092
		c-1.014,0.379-1.965,0.729-2.854,1.049c-0.882,0.317-1.529,0.562-1.923,0.731c-3.528,1.265-5.315,3.375-5.315,6.275v1.685
		c0,1.249,0.248,2.438,0.732,3.536c0.481,1.086,1.146,2.044,1.977,2.849c0.826,0.797,1.812,1.438,2.934,1.903
		c1.123,0.463,2.341,0.702,3.619,0.702c1.371,0,2.675-0.282,3.874-0.839c0.53-0.247,1.032-0.537,1.505-0.861v1.398h3.881v-22.85
		c0-1.233-0.222-2.413-0.656-3.504C65.301,21.766,64.695,20.807,63.936,20.005z M57.137,45.695c-0.748,0-1.457-0.14-2.107-0.414
		c-0.658-0.273-1.233-0.647-1.713-1.108c-0.474-0.46-0.855-1.013-1.14-1.646c-0.277-0.621-0.42-1.297-0.42-2.009v-1.685
		c0-0.68,0.241-1.174,0.757-1.562c0.671-0.504,1.365-0.886,2.068-1.139c0.336-0.119,0.879-0.323,1.629-0.604l2.49-0.934
		c0.903-0.339,1.82-0.672,2.725-0.988c0.387-0.136,0.752-0.269,1.09-0.39v7.3c0,0.71-0.143,1.389-0.42,2.01
		c-0.283,0.633-0.667,1.187-1.141,1.645c-0.476,0.461-1.053,0.835-1.713,1.109C58.592,45.555,57.884,45.695,57.137,45.695z
		 M84.994,19.977c-0.828-0.8-1.814-1.44-2.935-1.905c-1.123-0.467-2.342-0.703-3.62-0.703c-1.369,0-2.668,0.27-3.859,0.802
		c-0.536,0.239-1.043,0.526-1.519,0.856V4.172h-3.884v45.035h3.884v-1.396c0.472,0.323,0.974,0.611,1.505,0.858
		c1.196,0.555,2.499,0.839,3.873,0.839c1.277,0,2.495-0.239,3.62-0.702c1.12-0.466,2.106-1.105,2.935-1.904
		c0.828-0.804,1.492-1.764,1.976-2.848c0.485-1.096,0.731-2.287,0.731-3.536v-14.16c0-1.247-0.246-2.436-0.731-3.532
		C86.486,21.738,85.822,20.781,84.994,19.977z M78.44,45.695c-0.747,0-1.457-0.14-2.108-0.414c-0.658-0.273-1.233-0.647-1.711-1.108
		c-0.476-0.46-0.857-1.013-1.141-1.646c-0.277-0.621-0.418-1.297-0.418-2.009v-14.16c0-0.722,0.137-1.378,0.419-2.009
		c0.282-0.632,0.667-1.186,1.14-1.645c0.476-0.459,1.052-0.832,1.711-1.107c0.654-0.273,1.363-0.412,2.108-0.412
		s1.455,0.139,2.108,0.41c0.661,0.277,1.236,0.652,1.713,1.109c0.471,0.457,0.854,1.012,1.141,1.645
		c0.28,0.633,0.418,1.288,0.418,2.009v14.16c0,0.71-0.141,1.388-0.418,2.011c-0.285,0.631-0.668,1.186-1.141,1.644
		c-0.479,0.461-1.055,0.835-1.713,1.108C79.896,45.555,79.189,45.695,78.44,45.695z M107.111,22.826
		c0.485,1.097,0.731,2.285,0.731,3.532v0.914h-3.882v-0.914c0-0.721-0.139-1.376-0.42-2.009c-0.284-0.633-0.668-1.188-1.141-1.645
		c-0.476-0.457-1.049-0.832-1.713-1.109c-0.65-0.271-1.361-0.41-2.105-0.41c-0.748,0-1.454,0.139-2.109,0.412
		c-0.659,0.275-1.234,0.648-1.71,1.107c-0.474,0.459-0.856,1.013-1.142,1.646c-0.28,0.63-0.418,1.287-0.418,2.008v14.16
		c0,0.712,0.142,1.388,0.418,2.009c0.283,0.633,0.668,1.186,1.142,1.646c0.479,0.461,1.052,0.835,1.71,1.108
		c0.652,0.274,1.359,0.414,2.109,0.414c0.746,0,1.457-0.14,2.105-0.414c0.661-0.273,1.235-0.647,1.713-1.108
		c0.473-0.458,0.856-1.013,1.143-1.644c0.277-0.623,0.418-1.301,0.418-2.011v-0.912h3.882v0.912c0,1.249-0.246,2.44-0.731,3.536
		c-0.481,1.084-1.146,2.044-1.977,2.848c-0.827,0.799-1.812,1.438-2.934,1.904c-1.125,0.463-2.343,0.702-3.619,0.702
		c-1.277,0-2.496-0.239-3.621-0.702c-1.117-0.466-2.104-1.105-2.932-1.904c-0.83-0.804-1.494-1.762-1.977-2.848
		c-0.485-1.096-0.732-2.287-0.732-3.536V26.359c0-1.248,0.247-2.437,0.732-3.533c0.482-1.09,1.148-2.047,1.977-2.849
		c0.826-0.801,1.813-1.44,2.932-1.905c1.123-0.467,2.342-0.703,3.621-0.703c1.277,0,2.496,0.236,3.619,0.703
		c1.119,0.465,2.105,1.104,2.934,1.905C105.964,20.781,106.628,21.738,107.111,22.826z M126.557,20.779
		c-0.82-0.918-1.796-1.631-2.921-2.134c-1.123-0.502-2.336-0.752-3.632-0.752c-1.211,0-2.348,0.22-3.405,0.657
		c-1.06,0.439-1.979,1.036-2.757,1.792c-0.779,0.751-1.395,1.641-1.85,2.665c-0.453,1.025-0.682,2.124-0.682,3.295v14.747
		c0,1.173,0.229,2.272,0.682,3.295c0.455,1.026,1.069,1.914,1.85,2.669c0.777,0.752,1.697,1.348,2.757,1.789
		c1.06,0.438,2.194,0.658,3.405,0.658c1.296,0,2.509-0.264,3.632-0.785c1.125-0.521,2.101-1.225,2.921-2.104v2.573h2.143v-8.097
		V26.302V4.147h-2.143V20.779z M126.557,41.049c0,0.88-0.175,1.708-0.52,2.479c-0.347,0.774-0.812,1.443-1.396,2.008
		c-0.583,0.565-1.273,1.02-2.074,1.352c-0.802,0.334-1.654,0.5-2.562,0.5s-1.762-0.166-2.562-0.5
		c-0.802-0.332-1.494-0.785-2.076-1.352c-0.582-0.563-1.049-1.232-1.395-2.008c-0.35-0.771-0.521-1.601-0.521-2.479V26.302
		c0-0.878,0.172-1.705,0.521-2.479c0.346-0.774,0.812-1.445,1.395-2.011c0.582-0.563,1.274-1.014,2.076-1.349
		c0.801-0.333,1.653-0.501,2.562-0.501s1.762,0.168,2.562,0.501c0.801,0.334,1.491,0.785,2.074,1.349
		c0.585,0.565,1.05,1.236,1.396,2.011c0.345,0.773,0.52,1.6,0.52,2.479V41.049z M146.158,20.389
		c-0.777-0.756-1.696-1.351-2.756-1.792c-1.062-0.438-2.196-0.657-3.407-0.657c-1.21,0-2.349,0.22-3.405,0.657
		c-1.062,0.439-1.979,1.036-2.758,1.792c-0.779,0.751-1.396,1.642-1.85,2.665c-0.454,1.025-0.682,2.124-0.682,3.295v14.747
		c0,1.173,0.228,2.272,0.682,3.295c0.454,1.027,1.069,1.914,1.85,2.669c0.778,0.752,1.695,1.348,2.758,1.789
		c1.058,0.438,2.195,0.658,3.405,0.658c1.211,0,2.347-0.221,3.407-0.658c1.06-0.441,1.979-1.037,2.756-1.789
		c0.777-0.755,1.396-1.642,1.851-2.669c0.453-1.022,0.681-2.122,0.681-3.295h-2.141c0,0.88-0.176,1.708-0.521,2.479
		c-0.346,0.774-0.811,1.443-1.395,2.009c-0.584,0.564-1.274,1.019-2.075,1.351c-0.802,0.334-1.655,0.5-2.562,0.5
		c-0.906,0-1.763-0.166-2.562-0.5c-0.802-0.332-1.493-0.785-2.078-1.351c-0.582-0.564-1.047-1.233-1.393-2.009
		c-0.349-0.771-0.521-1.601-0.521-2.479v-5.333c0.562-0.169,1.34-0.439,2.337-0.818c0.993-0.375,2.021-0.75,3.081-1.129
		c1.058-0.373,2.042-0.738,2.951-1.099c0.909-0.354,1.557-0.595,1.945-0.72c3.287-1.172,4.932-3.055,4.932-5.648v-0.062
		c0-1.129-0.228-2.207-0.681-3.232C147.554,22.031,146.937,21.14,146.158,20.389z M145.381,28.736
		c-0.779,0.586-1.559,1.024-2.336,1.318c-0.348,0.124-0.919,0.335-1.719,0.626c-0.803,0.293-1.677,0.608-2.629,0.944
		c-0.951,0.332-1.904,0.678-2.854,1.033c-0.953,0.355-1.753,0.658-2.4,0.908V26.35c0-0.878,0.172-1.705,0.521-2.479
		c0.346-0.773,0.811-1.444,1.393-2.01c0.585-0.563,1.276-1.014,2.078-1.349c0.8-0.333,1.655-0.501,2.562-0.501
		s1.762,0.168,2.562,0.501c0.801,0.334,1.491,0.785,2.075,1.349c0.584,0.565,1.049,1.226,1.395,1.979s0.521,1.568,0.521,2.447
		C146.549,27.333,146.158,28.149,145.381,28.736z M168.914,18.254l-8.437,30.938h-0.842h-1.363h-0.843l-8.434-30.938h2.205
		l7.72,28.43l7.721-28.43H168.914z"/>
</g>
</svg>
