<?xml version="1.0" encoding="utf-8"?>
<!-- Generator: Adobe Illustrator 15.0.0, SVG Export Plug-In . SVG Version: 6.00 Build 0)  -->
<!DOCTYPE svg PUBLIC "-//W3C//DTD SVG 1.1//EN" "http://www.w3.org/Graphics/SVG/1.1/DTD/svg11.dtd">
<svg version="1.1" id="Layer_1" xmlns="http://www.w3.org/2000/svg" xmlns:xlink="http://www.w3.org/1999/xlink" x="0px" y="0px"
	 width="240px" height="42px" viewBox="0 0 240 42" style="enable-background:new 0 0 240 42;" xml:space="preserve">
<style type="text/css">
<![CDATA[
	.st0{fill-rule:evenodd;clip-rule:evenodd;fill:#D8A038;}
	.st1{fill:#FFFFFF;stroke:#000000;stroke-width:2;stroke-miterlimit:10;}
	.st2{fill-rule:evenodd;clip-rule:evenodd;fill:#885818;}
	.st3{fill-rule:evenodd;clip-rule:evenodd;}
	.st4{fill-rule:evenodd;clip-rule:evenodd;fill:#F8D870;}
]]>
</style>
<g>
	<path class="st3" d="M159.848,6.863c0-3.06,2.484-5.535,5.533-5.535h28.666c3.057,0,5.533,2.481,5.533,5.535v29.113
		c0,3.057-2.482,5.535-5.533,5.535h-28.666c-5.809,0-5.533-6.364-5.533-5.535V6.863z"/>
	<path class="st2" d="M161.571,6.126c0-1.53,1.242-2.773,2.773-2.773h30.567c1.53,0,2.774,1.243,2.774,2.773v30.569
		c0,1.53-1.244,2.773-2.774,2.773h-30.567c-1.531,0-2.773-1.243-2.773-2.773V6.126z"/>
	<path class="st0" d="M161.571,6.139c0-1.538,1.266-2.786,2.785-2.786h27.768c1.537,0,2.784,1.267,2.784,2.786v27.765
		c0,1.538-1.266,2.786-2.784,2.786h-27.768c-1.539,0-2.785-1.267-2.785-2.786V6.139z"/>
	<path class="st4" d="M164.348,8.896c0-1.528,1.267-2.765,2.768-2.765h22.247c1.528,0,2.768,1.267,2.768,2.765v22.251
		c0,1.528-1.267,2.765-2.768,2.765h-22.247c-1.528,0-2.768-1.267-2.768-2.765V8.896z"/>
</g>
<g>
	<path class="st3" d="M199.611,6.863c0-3.06,2.484-5.535,5.533-5.535h28.666c3.057,0,5.533,2.481,5.533,5.535v29.113
		c0,3.057-2.482,5.535-5.533,5.535h-28.666c-5.809,0-5.533-6.364-5.533-5.535V6.863z"/>
	<path class="st2" d="M201.333,6.126c0-1.53,1.242-2.773,2.773-2.773h30.567c1.53,0,2.774,1.243,2.774,2.773v30.569
		c0,1.53-1.244,2.773-2.774,2.773h-30.567c-1.531,0-2.773-1.243-2.773-2.773V6.126z"/>
	<path class="st0" d="M201.333,6.139c0-1.538,1.266-2.786,2.785-2.786h27.768c1.537,0,2.784,1.267,2.784,2.786v27.765
		c0,1.538-1.266,2.786-2.784,2.786h-27.768c-1.539,0-2.785-1.267-2.785-2.786V6.139z"/>
	<path class="st4" d="M204.111,8.896c0-1.528,1.267-2.765,2.768-2.765h22.247c1.528,0,2.768,1.267,2.768,2.765v22.251
		c0,1.528-1.267,2.765-2.768,2.765h-22.247c-1.528,0-2.768-1.267-2.768-2.765V8.896z"/>
</g>
<g>
	<path class="st3" d="M120.589,6.863c0-3.06,2.484-5.535,5.533-5.535h28.666c3.057,0,5.533,2.481,5.533,5.535v29.113
		c0,3.057-2.482,5.535-5.533,5.535h-28.666c-5.809,0-5.533-6.364-5.533-5.535V6.863z"/>
	<path class="st2" d="M122.312,6.126c0-1.53,1.242-2.773,2.773-2.773h30.567c1.53,0,2.774,1.243,2.774,2.773v30.569
		c0,1.53-1.244,2.773-2.774,2.773h-30.567c-1.531,0-2.773-1.243-2.773-2.773V6.126z"/>
	<path class="st0" d="M122.312,6.139c0-1.538,1.266-2.786,2.785-2.786h27.768c1.537,0,2.784,1.267,2.784,2.786v27.765
		c0,1.538-1.266,2.786-2.784,2.786h-27.768c-1.539,0-2.785-1.267-2.785-2.786V6.139z"/>
	<path class="st4" d="M125.089,8.896c0-1.528,1.267-2.765,2.768-2.765h22.247c1.528,0,2.768,1.267,2.768,2.765v22.251
		c0,1.528-1.267,2.765-2.768,2.765h-22.247c-1.528,0-2.768-1.267-2.768-2.765V8.896z"/>
</g>
<g>
	<path class="st3" d="M80.855,6.863c0-3.06,2.484-5.535,5.533-5.535h28.666c3.057,0,5.533,2.481,5.533,5.535v29.113
		c0,3.057-2.482,5.535-5.533,5.535H86.388c-5.809,0-5.533-6.364-5.533-5.535V6.863z"/>
	<path class="st2" d="M82.578,6.126c0-1.53,1.242-2.773,2.773-2.773h30.567c1.53,0,2.774,1.243,2.774,2.773v30.569
		c0,1.53-1.244,2.773-2.774,2.773H85.351c-1.531,0-2.773-1.243-2.773-2.773V6.126z"/>
	<path class="st0" d="M82.578,6.139c0-1.538,1.266-2.786,2.785-2.786h27.768c1.537,0,2.784,1.267,2.784,2.786v27.765
		c0,1.538-1.266,2.786-2.784,2.786H85.363c-1.539,0-2.785-1.267-2.785-2.786V6.139z"/>
	<path class="st4" d="M85.355,8.896c0-1.528,1.267-2.765,2.768-2.765h22.247c1.528,0,2.768,1.267,2.768,2.765v22.251
		c0,1.528-1.267,2.765-2.768,2.765H88.123c-1.528,0-2.768-1.267-2.768-2.765V8.896z"/>
</g>
<g>
	<path class="st3" d="M41.121,6.863c0-3.06,2.484-5.535,5.533-5.535H75.32c3.057,0,5.533,2.481,5.533,5.535v29.113
		c0,3.057-2.482,5.535-5.533,5.535H46.654c-5.809,0-5.533-6.364-5.533-5.535V6.863z"/>
	<path class="st2" d="M42.843,6.126c0-1.53,1.242-2.773,2.773-2.773h30.567c1.53,0,2.774,1.243,2.774,2.773v30.569
		c0,1.53-1.244,2.773-2.774,2.773H45.617c-1.531,0-2.773-1.243-2.773-2.773V6.126z"/>
	<path class="st0" d="M42.843,6.139c0-1.538,1.266-2.786,2.785-2.786h27.768c1.537,0,2.784,1.267,2.784,2.786v27.765
		c0,1.538-1.266,2.786-2.784,2.786H45.628c-1.539,0-2.785-1.267-2.785-2.786V6.139z"/>
	<path class="st4" d="M45.621,8.896c0-1.528,1.267-2.765,2.768-2.765h22.247c1.528,0,2.768,1.267,2.768,2.765v22.251
		c0,1.528-1.267,2.765-2.768,2.765H48.388c-1.528,0-2.768-1.267-2.768-2.765V8.896z"/>
</g>
<g>
	<rect x="92.226" y="12.559" width="3" height="10"/>
	<rect x="104.226" y="12.559" width="3" height="10"/>
</g>
<g>
	<path class="st3" d="M1.589,6.863c0-3.06,2.484-5.535,5.533-5.535h28.666c3.057,0,5.533,2.481,5.533,5.535v29.113
		c0,3.057-2.482,5.535-5.533,5.535H7.123c-5.809,0-5.533-6.364-5.533-5.535V6.863z"/>
	<path class="st2" d="M3.312,6.126c0-1.53,1.242-2.773,2.773-2.773h30.567c1.53,0,2.774,1.243,2.774,2.773v30.569
		c0,1.53-1.244,2.773-2.774,2.773H6.085c-1.531,0-2.773-1.243-2.773-2.773V6.126z"/>
	<path class="st0" d="M3.312,6.139c0-1.538,1.266-2.786,2.785-2.786h27.768c1.537,0,2.784,1.267,2.784,2.786v27.765
		c0,1.538-1.266,2.786-2.784,2.786H6.097c-1.539,0-2.785-1.267-2.785-2.786V6.139z"/>
	<path class="st4" d="M6.089,8.896c0-1.528,1.267-2.765,2.768-2.765h22.247c1.528,0,2.768,1.267,2.768,2.765v22.251
		c0,1.528-1.267,2.765-2.768,2.765H8.857c-1.528,0-2.768-1.267-2.768-2.765V8.896z"/>
</g>
<g>
	<rect x="12.226" y="12.559" width="3" height="10"/>
	<rect x="24.226" y="12.559" width="3" height="10"/>
</g>
<g>
	<rect x="170.226" y="12.559" width="3" height="10"/>
	<rect x="182.226" y="12.559" width="3" height="10"/>
</g>
<g>
	<path class="st1" d="M221.802,20.643c-0.456,0.286-0.766,0.562-0.929,0.825s-0.244,0.539-0.244,0.825v0.857h-7.062V21.93
		c0-0.66,0.083-1.237,0.248-1.732s0.39-0.94,0.677-1.336c0.285-0.396,0.627-0.765,1.022-1.105c0.396-0.342,0.825-0.677,1.287-1.007
		l0.561-0.396c0.353-0.241,0.622-0.479,0.809-0.709c0.187-0.231,0.28-0.479,0.28-0.743c0-0.462-0.137-0.786-0.412-0.973
		c-0.275-0.188-0.6-0.281-0.974-0.281c-0.726,0-1.243,0.26-1.551,0.775c-0.309,0.518-0.462,1.117-0.462,1.799l-7.095-0.924
		c0.132-1.408,0.478-2.612,1.039-3.613s1.265-1.815,2.112-2.442c0.847-0.627,1.793-1.083,2.838-1.369s2.129-0.429,3.25-0.429
		c1.012,0,2.043,0.115,3.094,0.346c1.052,0.231,2.005,0.616,2.859,1.155c0.854,0.539,1.555,1.254,2.103,2.146
		c0.548,0.891,0.821,1.985,0.821,3.283c0,0.77-0.098,1.451-0.293,2.046c-0.196,0.594-0.479,1.139-0.848,1.634
		c-0.369,0.494-0.82,0.951-1.354,1.369S222.455,20.247,221.802,20.643z M217.098,31.995c-0.572,0-1.105-0.104-1.601-0.313
		c-0.495-0.21-0.93-0.49-1.304-0.842s-0.665-0.77-0.874-1.254s-0.313-1.012-0.313-1.584c0-0.55,0.104-1.066,0.313-1.551
		s0.5-0.908,0.874-1.271c0.374-0.362,0.809-0.648,1.304-0.857s1.028-0.313,1.601-0.313c0.571,0,1.105,0.104,1.601,0.313
		s0.93,0.495,1.304,0.857c0.374,0.363,0.665,0.787,0.874,1.271s0.313,1.001,0.313,1.551c0,0.572-0.104,1.1-0.313,1.584
		s-0.5,0.902-0.874,1.254s-0.809,0.632-1.304,0.842C218.204,31.891,217.669,31.995,217.098,31.995z"/>
</g>
<g>
	<path class="st1" d="M144.157,20.945c-0.457,0.286-0.767,0.562-0.93,0.825s-0.244,0.539-0.244,0.825v0.857h-7.062v-1.221
		c0-0.66,0.083-1.237,0.248-1.732s0.391-0.94,0.676-1.336c0.286-0.396,0.627-0.765,1.023-1.105c0.396-0.342,0.825-0.677,1.287-1.007
		l0.561-0.396c0.352-0.241,0.621-0.479,0.809-0.709c0.188-0.231,0.281-0.479,0.281-0.743c0-0.462-0.139-0.786-0.413-0.973
		c-0.275-0.188-0.6-0.281-0.974-0.281c-0.726,0-1.243,0.26-1.551,0.775c-0.309,0.518-0.462,1.117-0.462,1.799l-7.095-0.924
		c0.132-1.408,0.479-2.612,1.039-3.613s1.265-1.815,2.112-2.442c0.847-0.627,1.793-1.083,2.838-1.369
		c1.044-0.286,2.128-0.429,3.251-0.429c1.011,0,2.042,0.115,3.094,0.346c1.051,0.231,2.004,0.616,2.858,1.155
		s1.556,1.254,2.103,2.146c0.548,0.891,0.822,1.985,0.822,3.283c0,0.77-0.099,1.451-0.294,2.046
		c-0.196,0.594-0.479,1.139-0.848,1.634c-0.37,0.494-0.821,0.951-1.354,1.369S144.808,20.55,144.157,20.945z M139.452,32.298
		c-0.572,0-1.105-0.104-1.601-0.313c-0.495-0.21-0.93-0.49-1.304-0.842s-0.665-0.77-0.874-1.254
		c-0.21-0.484-0.313-1.012-0.313-1.584c0-0.55,0.104-1.066,0.313-1.551c0.209-0.484,0.5-0.908,0.874-1.271
		c0.374-0.362,0.809-0.648,1.304-0.857s1.028-0.313,1.601-0.313s1.105,0.104,1.601,0.313s0.929,0.495,1.304,0.857
		c0.373,0.363,0.665,0.787,0.874,1.271s0.313,1.001,0.313,1.551c0,0.572-0.104,1.1-0.313,1.584s-0.501,0.902-0.874,1.254
		c-0.375,0.352-0.809,0.632-1.304,0.842C140.557,32.193,140.024,32.298,139.452,32.298z"/>
</g>
<g>
	<path class="st1" d="M64.562,20.643c-0.456,0.286-0.766,0.562-0.929,0.825s-0.244,0.539-0.244,0.825v0.857h-7.062V21.93
		c0-0.66,0.083-1.237,0.248-1.732s0.39-0.94,0.677-1.336c0.285-0.396,0.627-0.765,1.022-1.105c0.396-0.342,0.825-0.677,1.287-1.007
		l0.561-0.396c0.353-0.241,0.622-0.479,0.809-0.709c0.187-0.231,0.28-0.479,0.28-0.743c0-0.462-0.137-0.786-0.412-0.973
		c-0.275-0.188-0.6-0.281-0.974-0.281c-0.726,0-1.243,0.26-1.551,0.775c-0.309,0.518-0.462,1.117-0.462,1.799l-7.095-0.924
		c0.132-1.408,0.478-2.612,1.039-3.613s1.265-1.815,2.112-2.442c0.847-0.627,1.793-1.083,2.838-1.369s2.129-0.429,3.25-0.429
		c1.012,0,2.043,0.115,3.094,0.346c1.052,0.231,2.005,0.616,2.859,1.155c0.854,0.539,1.555,1.254,2.103,2.146
		c0.548,0.891,0.821,1.985,0.821,3.283c0,0.77-0.098,1.451-0.293,2.046c-0.196,0.594-0.479,1.139-0.848,1.634
		c-0.369,0.494-0.82,0.951-1.354,1.369S65.214,20.247,64.562,20.643z M59.858,31.995c-0.572,0-1.105-0.104-1.601-0.313
		c-0.495-0.21-0.93-0.49-1.304-0.842s-0.665-0.77-0.874-1.254s-0.313-1.012-0.313-1.584c0-0.55,0.104-1.066,0.313-1.551
		s0.5-0.908,0.874-1.271c0.374-0.362,0.809-0.648,1.304-0.857s1.028-0.313,1.601-0.313c0.571,0,1.105,0.104,1.601,0.313
		s0.93,0.495,1.304,0.857c0.374,0.363,0.665,0.787,0.874,1.271s0.313,1.001,0.313,1.551c0,0.572-0.104,1.1-0.313,1.584
		s-0.5,0.902-0.874,1.254s-0.809,0.632-1.304,0.842C60.963,31.891,60.429,31.995,59.858,31.995z"/>
</g>
</svg>
