<?xml version="1.0" encoding="UTF-8" standalone="no"?>
<svg width="401px" height="400px" viewBox="0 0 401 400" version="1.1" xmlns="http://www.w3.org/2000/svg" xmlns:xlink="http://www.w3.org/1999/xlink" xmlns:sketch="http://www.bohemiancoding.com/sketch/ns">
    <!-- Generator: Sketch 3.3.2 (12043) - http://www.bohemiancoding.com/sketch -->
    <title>Slice 1</title>
    <desc>Created with Sketch.</desc>
    <defs></defs>
    <g id="Page-1" stroke="none" stroke-width="1" fill="none" fill-rule="evenodd" sketch:type="MSPage">
        <g id="braziljs" sketch:type="MSLayerGroup" transform="translate(0.500000, 0.000000)">
            <g id="Group" transform="translate(32.000000, 80.000000)" sketch:type="MSShapeGroup">
                <path d="M271.08,236.264 L45.475,236.264 L54.166,204.382 L3.677,87.626 L76.936,87.625 L99.555,3.483 L332.955,3.483 L271.08,236.264 Z" id="Shape" fill="#000000"></path>
                <path d="M271.08,233.264 L128.16,233.264 L45.475,233.264 C46.439,234.53 47.404,235.795 48.368,237.062 C51.265,226.434 54.162,215.807 57.059,205.18 C57.567,203.317 55.61,200.218 54.901,198.577 C52.963,194.098 51.026,189.617 49.089,185.138 C37.083,157.373 25.077,129.61 13.07,101.846 C10.802,96.601 8.534,91.357 6.266,86.113 C5.403,87.618 4.539,89.122 3.676,90.627 C28.095,90.627 52.515,90.627 76.935,90.626 C78.263,90.626 79.481,89.711 79.828,88.423 C87.368,60.376 94.907,32.328 102.447,4.28 C101.483,5.014 100.518,5.748 99.554,6.483 L240.532,6.483 L332.954,6.483 C331.99,5.217 331.025,3.951 330.061,2.686 C318.13,47.569 306.2,92.453 294.27,137.336 C285.575,170.046 276.88,202.757 268.186,235.467 C267.191,239.211 272.978,240.798 273.971,237.063 C285.902,192.179 297.832,147.296 309.762,102.413 C318.457,69.703 327.152,36.992 335.846,4.282 C336.347,2.399 334.917,0.485 332.953,0.485 L191.974,0.485 L99.553,0.485 C98.225,0.485 97.007,1.4 96.66,2.688 C89.12,30.735 81.581,58.783 74.041,86.831 C75.005,86.097 75.97,85.363 76.934,84.628 C52.515,84.628 28.095,84.628 3.675,84.629 C1.194,84.629 0.214,87.13 1.085,89.143 C10.094,109.976 19.104,130.81 28.112,151.644 C33.939,165.119 39.766,178.593 45.593,192.068 C47.252,195.905 48.911,199.742 50.571,203.578 C50.883,204.302 51.196,205.024 51.509,205.747 C51.957,206.783 51.552,202.56 51.182,203.918 C50.911,204.913 50.64,205.908 50.368,206.903 C47.772,216.424 45.177,225.947 42.58,235.468 C42.067,237.351 43.519,239.266 45.473,239.266 L188.393,239.266 L271.078,239.266 C274.949,239.264 274.949,233.264 271.08,233.264 L271.08,233.264 Z" id="Shape" fill="#FFFFFF"></path>
            </g>
            <path d="M96.953,272.46 L159.31,272.46 L120.698,183.479 L58.363,183.479 L96.953,272.46 Z" id="Shape" opacity="0.6" fill="#FFDE17" sketch:type="MSShapeGroup"></path>
            <path d="M159.31,272.46 L96.953,272.46 L143.195,99.403 L205.551,99.403 L159.31,272.46 Z" id="Shape" fill="#FFDE17" sketch:type="MSShapeGroup"></path>
            <path d="M298.455,272.46 L173.954,272.46 L183.964,235 L308.532,235 L298.455,272.46 Z" id="Shape" opacity="0.6" fill="#FFDE17" sketch:type="MSShapeGroup"></path>
            <path d="M268.119,153.069 L282.458,99.403 L220.287,99.337 L188.058,219.146 L250.545,219.146 L236.216,272.46 L298.711,272.46 L330.273,152.976 L268.119,153.069 Z" id="Shape" fill="#FFDE17" sketch:type="MSShapeGroup"></path>
            <path d="M334.784,137.121 L210.319,137.121 L220.464,99.404 L344.845,99.404 L334.784,137.121 Z" id="Shape" opacity="0.6" fill="#FFDE17" sketch:type="MSShapeGroup"></path>
            <g id="Group" transform="translate(96.000000, 283.000000)" fill="#FFFFFF" sketch:type="MSShapeGroup">
                <path d="M6.108,1.378 L13.814,1.379 C14.798,1.379 15.668,1.492 16.424,1.721 C17.181,1.951 17.792,2.288 18.254,2.737 C18.716,3.184 19.023,3.742 19.171,4.407 C19.319,5.075 19.275,5.854 19.039,6.751 C18.872,7.388 18.648,7.93 18.374,8.377 C18.097,8.824 17.832,9.196 17.576,9.496 C17.264,9.854 16.94,10.153 16.6,10.392 C16.959,10.669 17.26,11.027 17.498,11.465 C17.693,11.842 17.837,12.321 17.932,12.899 C18.025,13.475 17.963,14.18 17.742,15.016 C17.49,15.971 17.094,16.836 16.554,17.614 C16.014,18.388 15.363,19.049 14.598,19.596 C13.833,20.143 12.965,20.562 11.992,20.85 C11.021,21.138 9.985,21.282 8.882,21.284 L0.851,21.282 L6.108,1.378 L6.108,1.378 Z M8.878,16.599 C10.374,16.599 11.275,16.02 11.58,14.867 C11.885,13.714 11.288,13.135 9.793,13.135 L9.084,13.137 L8.171,16.599 L8.878,16.599 L8.878,16.599 Z M12.776,7.436 C13.017,6.522 12.646,6.064 11.663,6.064 L10.954,6.064 L10.228,8.809 L10.936,8.809 C11.92,8.81 12.534,8.35 12.776,7.436 L12.776,7.436 Z" id="Shape"></path>
                <path d="M22.672,1.379 L29.463,1.379 C30.723,1.379 31.844,1.549 32.828,1.886 C33.813,2.225 34.611,2.722 35.224,3.38 C35.838,4.035 36.24,4.847 36.428,5.812 C36.616,6.777 36.544,7.885 36.213,9.138 C35.95,10.135 35.59,10.979 35.13,11.675 C34.67,12.37 34.213,12.948 33.757,13.405 C33.226,13.922 32.668,14.36 32.082,14.718 L34.039,21.283 L26.657,21.283 L25.038,16.239 L23.705,21.283 L17.416,21.28 L22.672,1.379 L22.672,1.379 Z M26.376,11.167 L26.7,11.167 C27.45,11.167 28.128,11 28.739,10.661 C29.351,10.323 29.761,9.756 29.971,8.961 C30.181,8.165 30.07,7.599 29.638,7.259 C29.205,6.922 28.616,6.753 27.867,6.753 L27.542,6.753 L26.376,11.167 L26.376,11.167 Z" id="Shape"></path>
                <path d="M47.062,1.381 L51.786,1.381 L53.999,21.284 L47.798,21.284 L47.621,19.494 L41.656,19.494 L40.534,21.284 L34.334,21.284 L47.062,1.381 L47.062,1.381 Z M47.125,15.108 L46.719,11.617 L44.468,15.108 L47.125,15.108 L47.125,15.108 Z" id="Shape"></path>
                <path d="M65.019,6.604 L59.588,6.604 L62.975,1.382 L75.582,1.382 L64.854,16.064 L71.32,16.066 L67.961,21.288 L54.291,21.285 L65.019,6.604 L65.019,6.604 Z" id="Shape"></path>
                <path d="M76.468,1.382 L83.142,1.382 L77.883,21.287 L71.212,21.287 L76.468,1.382 L76.468,1.382 Z" id="Shape"></path>
                <path d="M85.208,1.383 L91.761,1.383 L87.884,16.066 L93.317,16.066 L91.938,21.288 L79.95,21.288 L85.208,1.383 L85.208,1.383 Z" id="Shape"></path>
                <path d="M94.378,16.513 L96.533,16.514 C97.164,16.514 97.619,16.393 97.899,16.156 C98.177,15.918 98.375,15.579 98.491,15.14 L102.125,1.385 L108.622,1.385 L104.696,16.246 C104.207,18.096 103.444,19.398 102.408,20.154 C101.371,20.912 99.938,21.288 98.108,21.288 L93.118,21.287 L94.378,16.513 L94.378,16.513 Z" id="Shape"></path>
                <path d="M106.443,15.111 C106.838,15.252 107.262,15.361 107.713,15.439 C108.082,15.541 108.508,15.62 108.995,15.68 C109.48,15.74 109.978,15.77 110.492,15.77 C111.396,15.77 111.938,15.43 112.119,14.754 C112.186,14.494 112.118,14.232 111.914,13.963 C111.709,13.695 111.437,13.397 111.102,13.068 C110.764,12.74 110.408,12.376 110.031,11.978 C109.653,11.581 109.322,11.124 109.035,10.605 C108.75,10.087 108.553,9.505 108.449,8.859 C108.345,8.213 108.402,7.471 108.621,6.636 C108.87,5.701 109.257,4.876 109.779,4.159 C110.302,3.443 110.923,2.845 111.64,2.369 C112.357,1.89 113.145,1.528 114.01,1.279 C114.871,1.03 115.756,0.906 116.661,0.907 C117.135,0.906 117.6,0.931 118.059,0.981 C118.516,1.032 118.928,1.074 119.292,1.115 C119.709,1.176 120.117,1.235 120.514,1.295 L119.039,6.874 C118.889,6.854 118.715,6.835 118.524,6.816 C118.371,6.795 118.198,6.775 118.006,6.755 C117.815,6.734 117.612,6.725 117.395,6.725 C117.279,6.725 117.127,6.73 116.949,6.741 C116.769,6.751 116.595,6.775 116.428,6.814 C116.258,6.854 116.102,6.925 115.96,7.024 C115.814,7.123 115.719,7.262 115.672,7.441 C115.63,7.601 115.711,7.798 115.913,8.04 C116.116,8.277 116.365,8.557 116.666,8.874 C116.967,9.193 117.293,9.56 117.645,9.978 C117.996,10.398 118.293,10.875 118.535,11.411 C118.776,11.949 118.943,12.555 119.029,13.231 C119.115,13.907 119.05,14.664 118.828,15.499 C118.598,16.376 118.242,17.195 117.765,17.962 C117.288,18.729 116.683,19.396 115.952,19.961 C115.222,20.529 114.359,20.977 113.369,21.304 C112.377,21.632 111.262,21.796 110.021,21.796 C109.271,21.796 108.587,21.762 107.966,21.692 C107.344,21.621 106.8,21.537 106.334,21.437 C105.79,21.335 105.3,21.218 104.864,21.079 L106.443,15.111 L106.443,15.111 Z" id="Shape"></path>
                <path d="M126.715,11.353 C127.136,9.762 127.791,8.325 128.682,7.04 C129.572,5.759 130.61,4.66 131.798,3.745 C132.983,2.831 134.271,2.13 135.658,1.64 C137.048,1.155 138.451,0.91 139.868,0.91 C140.991,0.91 141.96,1.021 142.779,1.24 C143.596,1.458 144.283,1.707 144.84,1.986 C145.484,2.303 146.023,2.652 146.455,3.03 L141.895,8.551 C141.643,8.311 141.358,8.084 141.042,7.864 C140.749,7.706 140.392,7.55 139.969,7.402 C139.546,7.253 139.038,7.177 138.448,7.177 C137.838,7.177 137.248,7.286 136.678,7.505 C136.108,7.724 135.58,8.023 135.099,8.399 C134.615,8.779 134.198,9.222 133.847,9.728 C133.495,10.234 133.244,10.778 133.093,11.354 C132.94,11.932 132.909,12.474 133.002,12.981 C133.096,13.489 133.287,13.932 133.581,14.308 C133.875,14.687 134.259,14.986 134.731,15.204 C135.205,15.423 135.756,15.532 136.387,15.532 C137.017,15.532 137.598,15.453 138.133,15.294 C138.667,15.134 139.126,14.955 139.515,14.758 C139.967,14.539 140.38,14.279 140.753,13.981 L142.395,19.502 C141.749,19.94 141.015,20.328 140.199,20.665 C139.494,20.944 138.67,21.203 137.72,21.442 C136.77,21.68 135.725,21.799 134.583,21.799 C133.048,21.799 131.698,21.545 130.532,21.038 C129.366,20.53 128.433,19.819 127.73,18.904 C127.026,17.987 126.579,16.889 126.385,15.606 C126.197,14.322 126.306,12.906 126.715,11.353 L126.715,11.353 Z" id="Shape"></path>
                <path d="M143.074,11.354 C143.452,9.921 144.08,8.569 144.959,7.293 C145.837,6.022 146.866,4.912 148.052,3.968 C149.236,3.025 150.531,2.279 151.936,1.73 C153.339,1.184 154.751,0.911 156.168,0.912 C157.587,0.912 158.852,1.185 159.965,1.731 C161.082,2.28 161.983,3.025 162.666,3.97 C163.354,4.914 163.798,6.024 164.003,7.296 C164.207,8.57 164.121,9.924 163.742,11.356 C163.364,12.787 162.734,14.141 161.859,15.415 C160.98,16.687 159.948,17.797 158.764,18.743 C157.579,19.686 156.285,20.432 154.879,20.978 C153.477,21.526 152.066,21.799 150.648,21.799 C149.231,21.799 147.964,21.526 146.849,20.978 C145.733,20.431 144.832,19.686 144.148,18.74 C143.464,17.796 143.018,16.687 142.813,15.413 C142.607,14.14 142.695,12.787 143.074,11.354 L143.074,11.354 Z M149.274,11.354 C149.121,11.933 149.086,12.475 149.17,12.981 C149.253,13.488 149.431,13.931 149.704,14.308 C149.978,14.686 150.338,14.985 150.781,15.204 C151.226,15.423 151.732,15.532 152.304,15.532 C152.874,15.534 153.44,15.423 153.999,15.205 C154.559,14.986 155.076,14.686 155.55,14.309 C156.023,13.932 156.437,13.489 156.786,12.982 C157.137,12.476 157.389,11.934 157.542,11.357 C157.692,10.779 157.728,10.237 157.646,9.731 C157.564,9.224 157.383,8.781 157.113,8.402 C156.837,8.023 156.478,7.724 156.035,7.507 C155.592,7.286 155.082,7.177 154.512,7.178 C153.942,7.178 153.376,7.286 152.817,7.507 C152.255,7.724 151.74,8.023 151.266,8.401 C150.791,8.78 150.381,9.222 150.031,9.729 C149.678,10.236 149.427,10.778 149.274,11.354 L149.274,11.354 Z" id="Shape"></path>
                <path d="M168,1.388 L173.166,1.39 L176.572,9.059 L178.6,1.39 L184.77,1.39 L179.511,21.293 L174.315,21.294 L170.928,13.654 L168.911,21.293 L162.739,21.293 L168,1.388 L168,1.388 Z" id="Shape"></path>
                <path d="M186.835,1.39 L198.439,1.392 L197.06,6.614 L191.745,6.613 L191.162,8.821 L196.389,8.821 L195.08,13.775 L189.854,13.775 L187.869,21.295 L181.579,21.295 L186.835,1.39 L186.835,1.39 Z" id="Shape"></path>
            </g>
            <rect id="Rectangle-1" sketch:type="MSShapeGroup" x="0" y="0" width="400" height="400"></rect>
        </g>
    </g>
</svg>