<?xml version="1.0" encoding="UTF-8" standalone="no"?>
<svg width="32px" height="32px" viewBox="0 0 32 32" version="1.1" xmlns="http://www.w3.org/2000/svg" xmlns:xlink="http://www.w3.org/1999/xlink" xmlns:sketch="http://www.bohemiancoding.com/sketch/ns">
    <!-- Generator: Sketch 3.3.2 (12043) - http://www.bohemiancoding.com/sketch -->
    <title>Shape</title>
    <desc>Created with Sketch.</desc>
    <defs></defs>
    <g id="Page-1" stroke="none" stroke-width="1" fill="none" fill-rule="evenodd" sketch:type="MSPage">
        <path d="M15.9999683,2.88294125 C20.2721731,2.88294125 20.7781741,2.89920034 22.4653095,2.97617701 C24.0252937,3.04737407 24.8724816,3.30802772 25.436342,3.52708096 C26.1831172,3.81733126 26.7161744,4.16410732 27.2760335,4.72396649 C27.8358926,5.28382565 28.1826688,5.81688271 28.4728555,6.56365797 C28.6919722,7.1275184 28.9526259,7.9747063 29.023823,9.534627 C29.1007996,11.2218259 29.1170588,11.7278268 29.1170588,16.0000318 C29.1170588,20.2722366 29.1007996,20.7782376 29.023823,22.465373 C28.9526259,24.0253572 28.6919722,24.8725451 28.4728555,25.4364055 C28.1826688,26.1831807 27.8358926,26.7162379 27.2760335,27.276097 C26.7161744,27.8359561 26.1831172,28.1827322 25.436342,28.472919 C24.8724816,28.6920357 24.0252937,28.9526895 22.4653095,29.0238865 C20.7784281,29.1008631 20.2724272,29.1171222 15.9999683,29.1171222 C11.7275093,29.1171222 11.2215084,29.1008631 9.534627,29.0238865 C7.9746428,28.9526895 7.12745489,28.6920357 6.56365797,28.472919 C5.8168192,28.1827322 5.28376214,27.8359561 4.72390297,27.276097 C4.16404381,26.7162379 3.81726775,26.1831807 3.52708096,25.4364055 C3.30796422,24.8725451 3.04731056,24.0253572 2.9761135,22.4654365 C2.89913682,20.7782376 2.88287774,20.2722366 2.88287774,16.0000318 C2.88287774,11.7278268 2.89913682,11.2218259 2.9761135,9.53469051 C3.04731056,7.9747063 3.30796422,7.1275184 3.52708096,6.56365797 C3.81726775,5.81688271 4.16404381,5.28382565 4.72390297,4.72396649 C5.28376214,4.16410732 5.8168192,3.81733126 6.56365797,3.52708096 C7.12745489,3.30802772 7.9746428,3.04737407 9.53456349,2.97617701 C11.2217624,2.89920034 11.7277633,2.88294125 15.9999683,2.88294125 L15.9999683,2.88294125 Z M15.9999683,0 C11.6545974,0 11.1097906,0.018418509 9.40322046,0.0962843436 C7.7001435,0.174023154 6.53710993,0.444457676 5.51932851,0.840011035 C4.46718708,1.24890193 3.57490557,1.79599516 2.68541861,2.68548213 C1.79593165,3.57496909 1.24883842,4.46725057 0.839947524,5.51939203 C0.444394164,6.53717344 0.173959643,7.70020701 0.0962208316,9.40328398 C0.0183549969,11.1097906 0,11.6546609 0,16.0000318 C0,20.3454026 0.0183549969,20.8902729 0.0962208316,22.5967795 C0.173959643,24.2998565 0.444394164,25.4628901 0.839947524,26.4806715 C1.24883842,27.5327494 1.79593165,28.4250944 2.68541861,29.3145814 C3.57490557,30.2040684 4.46718708,30.7511616 5.51932851,31.1600525 C6.53710993,31.5556059 7.7001435,31.8260404 9.40322046,31.9037791 C11.1097906,31.981645 11.6545974,32 15.9999683,32 C20.3453391,32 20.8902094,31.981645 22.596716,31.9037791 C24.299793,31.8260404 25.4628266,31.5556059 26.480608,31.1600525 C27.5327494,30.7511616 28.4250309,30.2040684 29.3145179,29.3145814 C30.2040049,28.4250944 30.7510981,27.5328129 31.159989,26.4806715 C31.5555424,25.4628901 31.8259769,24.2998565 31.9037156,22.5967795 C31.9815815,20.8902729 32,20.3454026 32,16.0000318 C32,11.6546609 31.9815815,11.1097906 31.9037156,9.40328398 C31.8259769,7.70020701 31.5555424,6.53717344 31.159989,5.51939203 C30.7510981,4.46725057 30.2040049,3.57496909 29.3145179,2.68548213 C28.4250309,1.79599516 27.5327494,1.24890193 26.480608,0.840011035 C25.4628266,0.444457676 24.299793,0.174023154 22.596716,0.0962843436 C20.8902094,0.018418509 20.3453391,0 15.9999683,0 L15.9999683,0 Z M15.9999683,7.78378894 C11.4622827,7.78378894 7.78372543,11.4623462 7.78372543,16.0000318 C7.78372543,20.5377173 11.4622827,24.2162746 15.9999683,24.2162746 C20.5376538,24.2162746 24.2162111,20.5377173 24.2162111,16.0000318 C24.2162111,11.4623462 20.5376538,7.78378894 15.9999683,7.78378894 L15.9999683,7.78378894 Z M15.9999683,21.3333969 C13.0544676,21.3333969 10.6666032,18.9455324 10.6666032,16.0000317 C10.6666032,13.0545311 13.0544676,10.6666667 15.9999683,10.6666667 C18.9454689,10.6666667 21.3333334,13.0545311 21.3333334,16.0000317 C21.3333334,18.9455324 18.9454689,21.3333969 15.9999683,21.3333969 L15.9999683,21.3333969 Z M26.4607923,7.45917859 C26.4607923,8.51957661 25.6012194,9.37921289 24.5408214,9.37921289 C23.4804234,9.37921289 22.6207871,8.51957661 22.6207871,7.45917859 C22.6207871,6.39878056 23.4804234,5.5392078 24.5408214,5.5392078 C25.6012194,5.5392078 26.4607923,6.39878056 26.4607923,7.45917859 L26.4607923,7.45917859 Z" id="Shape" fill="#0A0A08" sketch:type="MSShapeGroup"></path>
    </g>
</svg>
