<?xml version="1.0" encoding="utf-8"?>
<!-- Generator: Adobe Illustrator 15.0.0, SVG Export Plug-In . SVG Version: 6.00 Build 0)  -->
<!DOCTYPE svg PUBLIC "-//W3C//DTD SVG 1.1//EN" "http://www.w3.org/Graphics/SVG/1.1/DTD/svg11.dtd">
<svg version="1.1" id="Layer_1" xmlns="http://www.w3.org/2000/svg" xmlns:xlink="http://www.w3.org/1999/xlink" x="0px" y="0px"
	 width="1920px" height="845px" viewBox="0 0 1920 845" style="enable-background:new 0 0 1920 845;" xml:space="preserve">
<style type="text/css">
<![CDATA[
	.st0{fill:none;stroke:#90C0C0;stroke-miterlimit:10;}
	.st1{opacity:0.6;fill-rule:evenodd;clip-rule:evenodd;fill:#A8D0D0;}
	.st2{fill-rule:evenodd;clip-rule:evenodd;fill:#70B0D0;}
	.st3{opacity:0.6;fill-rule:evenodd;clip-rule:evenodd;fill:#4080A0;}
	.st4{fill-rule:evenodd;clip-rule:evenodd;fill:#A8D0D0;}
	.st5{fill-rule:evenodd;clip-rule:evenodd;fill:#4080A0;}
	.st6{opacity:0.85;}
	.st7{opacity:0.95;}
	.st8{fill-rule:evenodd;clip-rule:evenodd;fill:#E8F0F8;}
	.st9{opacity:0.6;}
	.st10{opacity:0.6;fill-rule:evenodd;clip-rule:evenodd;fill:#C0E0E0;}
	.st11{fill-rule:evenodd;clip-rule:evenodd;fill:#F2F6FA;}
	.st12{fill:none;stroke:#105070;stroke-miterlimit:10;}
	.st13{fill-rule:evenodd;clip-rule:evenodd;fill:#C0E0E0;}
]]>
</style>
<g class="st7">
	<path class="st11" d="M748.878,749.797c0-11.23,9.096-20.336,20.356-20.336h121.974c11.243,0,20.356,9.127,20.356,20.336
		c0,11.23-9.095,20.336-20.356,20.336H769.234C757.992,770.133,748.878,761.004,748.878,749.797z"/>
	<path class="st13" d="M749.235,745.979c-0.234,1.236-0.357,2.512-0.357,3.818c0,11.207,9.114,20.336,20.356,20.336h121.974
		c11.262,0,20.356-9.105,20.356-20.336c0-1.301-0.122-2.574-0.357-3.809c-1.784,9.406-10.046,16.518-19.999,16.518H769.234
		C759.298,762.506,751.023,755.375,749.235,745.979z"/>
	<path class="st4" d="M749.035,749.797c-0.104,0.834-0.157,1.683-0.157,2.547c0,11.207,9.114,20.336,20.356,20.336h121.974
		c11.262,0,20.356-9.105,20.356-20.336c0-0.861-0.053-1.708-0.156-2.54c-1.252,10.029-9.803,17.792-20.2,17.792H769.234
		C758.854,767.596,750.288,759.812,749.035,749.797z"/>
	<path class="st10" d="M769.234,762.941h121.974c5.165,0,9.864-2,13.45-5H757v0.074C759,760.816,764.413,762.941,769.234,762.941z"
		/>
</g>
<g>
	<path class="st13" d="M947.933,504.902c0-34.367,28.454-62.23,63.575-62.23c35.112,0,63.574,27.848,63.574,62.23v339.625H947.933
		V504.902z"/>
	<path class="st4" d="M1003.561,443.41c4.768-0.696,9.72-0.898,14.335-0.898c21.749,0,52.924,19.601,55.997,54.055v348.077h-26.771
		V496.566C1047.121,471.164,1028.023,449.202,1003.561,443.41z"/>
	<ellipse class="st8" cx="993.131" cy="514.432" rx="6.954" ry="15.631"/>
	<ellipse class="st8" cx="1010.515" cy="598.601" rx="6.953" ry="15.632"/>
	<ellipse class="st8" cx="979.224" cy="667.138" rx="6.954" ry="15.631"/>
	<path class="st0" d="M947.933,504.216c0-34.528,28.454-62.521,63.575-62.521c35.112,0,63.574,27.979,63.574,62.521v340.997H947.933
		V504.216z"/>
	<g>
		<path class="st1" d="M1048,844.941V497.606c0-15.875-7.854-30.388-19.396-40.415l-0.604-0.076v387.826H1048z"/>
	</g>
</g>
<g>
	<path class="st13" d="M842.933,626.837c0-34.367,28.454-62.23,63.575-62.23c35.112,0,63.574,27.848,63.574,62.23v217.625H842.933
		V626.837z"/>
	<path class="st4" d="M898.561,565.345c4.768-0.696,9.72-0.898,14.335-0.898c21.749,0,52.924,19.601,55.997,54.055v226.077h-26.771
		V618.501C942.121,593.099,923.023,571.137,898.561,565.345z"/>
	<ellipse class="st8" cx="888.131" cy="636.367" rx="6.954" ry="15.631"/>
	<ellipse class="st8" cx="905.515" cy="720.535" rx="6.953" ry="15.632"/>
	<ellipse class="st8" cx="874.224" cy="789.073" rx="6.954" ry="15.631"/>
	<path class="st0" d="M842.933,626.15c0-34.528,28.454-62.521,63.575-62.521c35.112,0,63.574,27.979,63.574,62.521v218.997H842.933
		V626.15z"/>
	<g>
		<path class="st1" d="M943,844.941V619.372c0-15.875-7.854-30.388-19.396-40.415L923,578.881v266.061H943z"/>
	</g>
</g>
<g>
	<path class="st13" d="M588.933,578.902c0-34.367,28.454-62.23,63.575-62.23c35.112,0,63.574,27.848,63.574,62.23v264.625H588.933
		V578.902z"/>
	<path class="st4" d="M644.561,517.41c4.768-0.696,9.72-0.898,14.335-0.898c21.749,0,52.924,19.601,55.997,54.055v273.077h-26.771
		V570.566C688.121,545.164,669.023,523.202,644.561,517.41z"/>
	<ellipse class="st8" cx="634.131" cy="588.432" rx="6.954" ry="15.631"/>
	<ellipse class="st8" cx="651.515" cy="672.601" rx="6.953" ry="15.632"/>
	<ellipse class="st8" cx="620.224" cy="741.138" rx="6.954" ry="15.631"/>
	<path class="st0" d="M588.933,578.216c0-34.528,28.454-62.521,63.575-62.521c35.112,0,63.574,27.979,63.574,62.521v265.997H588.933
		V578.216z"/>
	<g>
		<path class="st1" d="M689,843.941V571.606c0-15.875-7.854-30.388-19.396-40.415L669,531.115v312.826H689z"/>
	</g>
</g>
<g>
	<path class="st13" d="M226.933,462.902c0-34.367,28.454-62.23,63.575-62.23c35.112,0,63.574,27.848,63.574,62.23v380.625H226.933
		V462.902z"/>
	<path class="st4" d="M282.561,401.41c4.768-0.696,9.72-0.898,14.335-0.898c21.749,0,52.924,19.601,55.997,54.055v389.077h-26.771
		V454.566C326.121,429.164,307.023,407.202,282.561,401.41z"/>
	<ellipse class="st8" cx="272.131" cy="472.432" rx="6.954" ry="15.631"/>
	<ellipse class="st8" cx="289.515" cy="556.601" rx="6.953" ry="15.632"/>
	<ellipse class="st8" cx="258.224" cy="625.138" rx="6.954" ry="15.631"/>
	<path class="st0" d="M226.933,462.216c0-34.528,28.454-62.521,63.575-62.521c35.112,0,63.574,27.979,63.574,62.521v381.997H226.933
		V462.216z"/>
	<g>
		<path class="st1" d="M327,843.941V455.606c0-15.875-7.854-30.388-19.396-40.415L307,415.115v428.826H327z"/>
	</g>
</g>
<g>
	<path class="st13" d="M1504.934,431.837c0-34.367,28.453-62.23,63.574-62.23c35.112,0,63.574,27.848,63.574,62.23v412.625h-127.148
		V431.837z"/>
	<path class="st4" d="M1560.561,370.345c4.768-0.696,9.72-0.898,14.335-0.898c21.749,0,52.924,19.601,55.997,54.055v421.077h-26.771
		V423.501C1604.121,398.099,1585.023,376.137,1560.561,370.345z"/>
	<ellipse class="st8" cx="1550.131" cy="441.367" rx="6.954" ry="15.631"/>
	<ellipse class="st8" cx="1567.515" cy="525.535" rx="6.953" ry="15.632"/>
	<ellipse class="st8" cx="1536.224" cy="594.073" rx="6.954" ry="15.631"/>
	<path class="st0" d="M1504.934,431.15c0-34.528,28.453-62.521,63.574-62.521c35.112,0,63.574,27.979,63.574,62.521v413.997
		h-127.148V431.15z"/>
	<g>
		<path class="st1" d="M1605,844.941v-420.4c0-15.875-7.854-30.388-19.396-40.415L1585,384.05v460.892H1605z"/>
	</g>
</g>
<g class="st6">
	<path class="st11" d="M221.878,786.797c0-11.23,9.096-20.336,20.356-20.336h121.974c11.243,0,20.356,9.127,20.356,20.336
		c0,11.23-9.095,20.336-20.356,20.336H242.234C230.992,807.133,221.878,798.004,221.878,786.797z"/>
	<path class="st13" d="M222.235,782.979c-0.234,1.236-0.357,2.512-0.357,3.818c0,11.207,9.114,20.336,20.356,20.336h121.974
		c11.262,0,20.356-9.105,20.356-20.336c0-1.301-0.122-2.574-0.357-3.809c-1.784,9.406-10.046,16.518-19.999,16.518H242.234
		C232.298,799.506,224.023,792.375,222.235,782.979z"/>
	<path class="st4" d="M222.035,786.797c-0.104,0.834-0.157,1.683-0.157,2.547c0,11.207,9.114,20.336,20.356,20.336h121.974
		c11.262,0,20.356-9.105,20.356-20.336c0-0.861-0.053-1.708-0.156-2.54c-1.252,10.029-9.803,17.792-20.2,17.792H242.234
		C231.854,804.596,223.288,796.812,222.035,786.797z"/>
	<path class="st10" d="M242.234,799.941h121.974c5.165,0,9.864-2,13.45-5H230v0.074C232,797.816,237.413,799.941,242.234,799.941z"
		/>
</g>
<g class="st7">
	<path class="st11" d="M230.878,744.797c0-11.23,9.096-20.336,20.356-20.336h191.974c11.243,0,20.356,9.127,20.356,20.336
		c0,11.23-9.095,20.336-20.356,20.336H251.234C239.992,765.133,230.878,756.004,230.878,744.797z"/>
	<path class="st13" d="M231.235,740.979c-0.234,1.236-0.357,2.512-0.357,3.818c0,11.207,9.114,20.336,20.356,20.336h191.974
		c11.262,0,20.356-9.105,20.356-20.336c0-1.301-0.122-2.574-0.357-3.809c-1.784,9.406-10.046,16.518-19.999,16.518H251.234
		C241.298,757.506,233.023,750.375,231.235,740.979z"/>
	<path class="st4" d="M231.035,744.797c-0.104,0.834-0.157,1.683-0.157,2.547c0,11.207,9.114,20.336,20.356,20.336h191.974
		c11.262,0,20.356-9.105,20.356-20.336c0-0.861-0.053-1.708-0.156-2.54c-1.252,10.029-9.803,17.792-20.2,17.792H251.234
		C240.854,762.596,232.288,754.812,231.035,744.797z"/>
	<path class="st10" d="M251.234,757.941h191.974c5.165,0,9.864-2,13.45-5H239v0.074C241,755.816,246.413,757.941,251.234,757.941z"
		/>
</g>
<g class="st6">
	<path class="st11" d="M140.878,501.797c0-11.23,9.096-20.336,20.356-20.336h121.974c11.243,0,20.356,9.127,20.356,20.336
		c0,11.23-9.095,20.336-20.356,20.336H161.234C149.992,522.133,140.878,513.004,140.878,501.797z"/>
	<path class="st13" d="M141.235,497.979c-0.234,1.236-0.357,2.512-0.357,3.818c0,11.207,9.114,20.336,20.356,20.336h121.974
		c11.262,0,20.356-9.105,20.356-20.336c0-1.301-0.122-2.574-0.357-3.809c-1.784,9.406-10.046,16.518-19.999,16.518H161.234
		C151.298,514.506,143.023,507.375,141.235,497.979z"/>
	<path class="st4" d="M141.035,501.797c-0.104,0.834-0.157,1.683-0.157,2.547c0,11.207,9.114,20.336,20.356,20.336h121.974
		c11.262,0,20.356-9.105,20.356-20.336c0-0.861-0.053-1.708-0.156-2.54c-1.252,10.029-9.803,17.792-20.2,17.792H161.234
		C150.854,519.596,142.288,511.812,141.035,501.797z"/>
	<path class="st10" d="M161.234,514.941h121.974c5.165,0,9.864-2,13.45-5H149v0.074C151,512.816,156.413,514.941,161.234,514.941z"
		/>
</g>
<g class="st7">
	<path class="st11" d="M1436.878,499.797c0-11.23,9.096-20.336,20.356-20.336h121.974c11.243,0,20.356,9.127,20.356,20.336
		c0,11.23-9.095,20.336-20.356,20.336h-121.974C1445.992,520.133,1436.878,511.004,1436.878,499.797z"/>
	<path class="st13" d="M1437.235,495.979c-0.234,1.236-0.357,2.512-0.357,3.818c0,11.207,9.114,20.336,20.356,20.336h121.974
		c11.262,0,20.356-9.105,20.356-20.336c0-1.301-0.122-2.574-0.357-3.809c-1.784,9.406-10.046,16.518-19.999,16.518h-121.974
		C1447.298,512.506,1439.023,505.375,1437.235,495.979z"/>
	<path class="st4" d="M1437.035,499.797c-0.104,0.834-0.157,1.683-0.157,2.547c0,11.207,9.114,20.336,20.356,20.336h121.974
		c11.262,0,20.356-9.105,20.356-20.336c0-0.861-0.053-1.708-0.156-2.54c-1.252,10.029-9.803,17.792-20.2,17.792h-121.974
		C1446.854,517.596,1438.288,509.812,1437.035,499.797z"/>
	<path class="st10" d="M1457.234,512.941h121.974c5.165,0,9.864-2,13.45-5H1445v0.074
		C1447,510.816,1452.413,512.941,1457.234,512.941z"/>
</g>
<g class="st7">
	<path class="st11" d="M709.878,659.797c0-11.23,9.096-20.336,20.356-20.336h121.974c11.243,0,20.356,9.127,20.356,20.336
		c0,11.23-9.095,20.336-20.356,20.336H730.234C718.992,680.133,709.878,671.004,709.878,659.797z"/>
	<path class="st13" d="M710.235,655.979c-0.234,1.236-0.357,2.512-0.357,3.818c0,11.207,9.114,20.336,20.356,20.336h121.974
		c11.262,0,20.356-9.105,20.356-20.336c0-1.301-0.122-2.574-0.357-3.809c-1.784,9.406-10.046,16.518-19.999,16.518H730.234
		C720.298,672.506,712.023,665.375,710.235,655.979z"/>
	<path class="st4" d="M710.035,659.797c-0.104,0.834-0.157,1.683-0.157,2.547c0,11.207,9.114,20.336,20.356,20.336h121.974
		c11.262,0,20.356-9.105,20.356-20.336c0-0.861-0.053-1.708-0.156-2.54c-1.252,10.029-9.803,17.792-20.2,17.792H730.234
		C719.854,677.596,711.288,669.812,710.035,659.797z"/>
	<path class="st10" d="M730.234,672.941h121.974c5.165,0,9.864-2,13.45-5H718v0.074C720,670.816,725.413,672.941,730.234,672.941z"
		/>
</g>
<g class="st7">
	<path class="st11" d="M503.878,624.797c0-11.23,9.096-20.336,20.356-20.336h121.974c11.243,0,20.356,9.127,20.356,20.336
		c0,11.23-9.095,20.336-20.356,20.336H524.234C512.992,645.133,503.878,636.004,503.878,624.797z"/>
	<path class="st13" d="M504.235,620.979c-0.234,1.236-0.357,2.512-0.357,3.818c0,11.207,9.114,20.336,20.356,20.336h121.974
		c11.262,0,20.356-9.105,20.356-20.336c0-1.301-0.122-2.574-0.357-3.809c-1.784,9.406-10.046,16.518-19.999,16.518H524.234
		C514.298,637.506,506.023,630.375,504.235,620.979z"/>
	<path class="st4" d="M504.035,624.797c-0.104,0.834-0.157,1.683-0.157,2.547c0,11.207,9.114,20.336,20.356,20.336h121.974
		c11.262,0,20.356-9.105,20.356-20.336c0-0.861-0.053-1.708-0.156-2.54c-1.252,10.029-9.803,17.792-20.2,17.792H524.234
		C513.854,642.596,505.288,634.812,504.035,624.797z"/>
	<path class="st10" d="M524.234,637.941h121.974c5.165,0,9.864-2,13.45-5H512v0.074C514,635.816,519.413,637.941,524.234,637.941z"
		/>
</g>
<g>
	<path class="st2" d="M1353.784,325.249c0-44.635,37.058-80.818,82.796-80.818c45.729,0,82.797,36.168,82.797,80.818v518.387
		h-165.593V325.249z"/>
	<path class="st5" d="M1424.105,245.347c6.211-0.905,13.379-0.637,19.389-0.637c28.324,0,71.605,29.141,75.606,73.886l0.276,525.552
		h-36.271V315.696C1483.105,282.703,1455.965,252.867,1424.105,245.347z"/>
	<path class="st13" d="M1412.649,359.198c4.999,0,9.054-9.089,9.054-20.299c0-11.215-4.055-20.304-9.054-20.304
		c-5.003,0-9.058,9.089-9.058,20.304C1403.592,350.109,1407.646,359.198,1412.649,359.198z"/>
	<path class="st13" d="M1435.287,468.512c5,0,9.056-9.089,9.056-20.3c0-11.216-4.056-20.302-9.056-20.302s-9.057,9.086-9.057,20.302
		C1426.23,459.423,1430.287,468.512,1435.287,468.512z"/>
	<ellipse class="st13" cx="1394.538" cy="537.223" rx="9.054" ry="20.302"/>
	<path class="st12" d="M1353.785,325.629c0-44.845,37.057-81.198,82.796-81.198c45.728,0,82.796,36.34,82.796,81.198v518.172
		h-165.592V325.629z"/>
	<g class="st9">
		<path class="st3" d="M1485,843.941V317.043c0-20.617-9.207-39.465-24.236-52.489l0.236-0.097v579.484H1485z"/>
	</g>
</g>
<g>
	<path class="st2" d="M63.784,320.249c0-44.635,37.058-80.818,82.796-80.818c45.729,0,82.797,36.168,82.797,80.818v384.387H63.784
		V320.249z"/>
	<path class="st5" d="M134.105,240.347c6.211-0.905,13.379-0.637,19.389-0.637c28.324,0,71.605,29.141,75.606,73.886l0.276,391.552
		h-36.271V310.696C193.105,277.703,165.965,247.867,134.105,240.347z"/>
	<path class="st13" d="M122.649,354.198c4.999,0,9.054-9.089,9.054-20.299c0-11.215-4.055-20.304-9.054-20.304
		c-5.003,0-9.058,9.089-9.058,20.304C113.592,345.109,117.646,354.198,122.649,354.198z"/>
	<path class="st13" d="M145.287,463.512c5,0,9.056-9.089,9.056-20.3c0-11.216-4.056-20.302-9.056-20.302s-9.057,9.086-9.057,20.302
		C136.23,454.423,140.287,463.512,145.287,463.512z"/>
	<ellipse class="st13" cx="104.538" cy="532.223" rx="9.054" ry="20.302"/>
	<path class="st12" d="M63.785,320.629c0-44.845,37.057-81.198,82.796-81.198c45.728,0,82.796,36.34,82.796,81.198v384.172H63.785
		V320.629z"/>
	<g class="st9">
		<path class="st3" d="M195,704.941V312.043c0-20.617-9.207-39.465-24.236-52.489l0.236-0.097v445.484H195z"/>
	</g>
</g>
<g>
	<path class="st2" d="M508.784,808.249c0-44.635,37.057-80.818,82.796-80.818c45.728,0,82.796,36.168,82.796,80.818v36.387H508.784
		V808.249z"/>
	<path class="st5" d="M579.105,728.347c6.211-0.905,13.38-0.637,19.389-0.637c28.324,0,71.605,29.141,75.606,73.886l0.276,43.552
		h-36.271v-46.451C638.105,765.703,610.965,735.867,579.105,728.347z"/>
	<path class="st13" d="M567.649,842.198c5,0,9.053-9.089,9.053-20.299c0-11.215-4.054-20.304-9.053-20.304
		c-5.002,0-9.057,9.089-9.057,20.304C558.592,833.109,562.647,842.198,567.649,842.198z"/>
	<path class="st12" d="M508.785,808.629c0-44.845,37.057-81.198,82.796-81.198c45.728,0,82.796,36.34,82.796,81.198v36.172H508.785
		V808.629z"/>
	<g class="st9">
		<path class="st3" d="M640,844.941v-44.898c0-20.617-9.207-39.465-24.237-52.489l0.237-0.097v97.484H640z"/>
	</g>
</g>
<g>
	<path class="st2" d="M988.784,684.249c0-44.635,37.058-80.818,82.796-80.818c45.729,0,82.797,36.168,82.797,80.818v161.387H988.784
		V684.249z"/>
	<path class="st5" d="M1059.105,604.347c6.211-0.905,13.379-0.637,19.389-0.637c28.324,0,71.605,29.141,75.606,73.886l0.276,168.552
		h-36.271V674.696C1118.105,641.703,1090.965,611.867,1059.105,604.347z"/>
	<path class="st13" d="M1047.649,718.198c4.999,0,9.054-9.089,9.054-20.299c0-11.215-4.055-20.304-9.054-20.304
		c-5.003,0-9.058,9.089-9.058,20.304C1038.592,709.109,1042.646,718.198,1047.649,718.198z"/>
	<path class="st13" d="M1070.287,827.512c5,0,9.056-9.089,9.056-20.3c0-11.216-4.056-20.302-9.056-20.302s-9.057,9.086-9.057,20.302
		C1061.23,818.423,1065.287,827.512,1070.287,827.512z"/>
	<path class="st12" d="M988.785,684.629c0-44.845,37.057-81.198,82.796-81.198c45.728,0,82.796,36.34,82.796,81.198v161.172H988.785
		V684.629z"/>
	<g class="st9">
		<path class="st3" d="M1120,845.941V676.043c0-20.617-9.207-39.465-24.236-52.489l0.236-0.097v222.484H1120z"/>
	</g>
</g>
<g>
	<path class="st2" d="M1189.784,723.091c0-44.635,37.058-80.818,82.796-80.818c45.729,0,82.797,36.168,82.797,80.818v121.387
		h-165.593V723.091z"/>
	<path class="st5" d="M1260.105,643.188c6.211-0.905,13.379-0.637,19.389-0.637c28.324,0,71.605,29.141,75.606,73.886l0.276,128.552
		h-36.271V713.538C1319.105,680.545,1291.965,650.709,1260.105,643.188z"/>
	<path class="st13" d="M1248.649,757.04c4.999,0,9.054-9.089,9.054-20.299c0-11.215-4.055-20.304-9.054-20.304
		c-5.003,0-9.058,9.089-9.058,20.304C1239.592,747.951,1243.646,757.04,1248.649,757.04z"/>
	<path class="st12" d="M1189.785,723.471c0-44.845,37.057-81.198,82.796-81.198c45.728,0,82.796,36.34,82.796,81.198v121.172
		h-165.592V723.471z"/>
	<g class="st9">
		<path class="st3" d="M1321,844.941V714.885c0-20.617-9.207-39.465-24.236-52.489l0.236-0.097v182.643H1321z"/>
	</g>
</g>
<g>
	<path class="st2" d="M1285.784,559.249c0-44.635,37.058-80.818,82.796-80.818c45.729,0,82.797,36.168,82.797,80.818v285.387
		h-165.593V559.249z"/>
	<path class="st5" d="M1356.105,479.347c6.211-0.905,13.379-0.637,19.389-0.637c28.324,0,71.605,29.141,75.606,73.886l0.276,292.552
		h-36.271V549.696C1415.105,516.703,1387.965,486.867,1356.105,479.347z"/>
	<path class="st13" d="M1344.649,593.198c4.999,0,9.054-9.089,9.054-20.299c0-11.215-4.055-20.304-9.054-20.304
		c-5.003,0-9.058,9.089-9.058,20.304C1335.592,584.109,1339.646,593.198,1344.649,593.198z"/>
	<path class="st13" d="M1367.287,702.512c5,0,9.056-9.089,9.056-20.3c0-11.216-4.056-20.302-9.056-20.302s-9.057,9.086-9.057,20.302
		C1358.23,693.423,1362.287,702.512,1367.287,702.512z"/>
	<ellipse class="st13" cx="1326.538" cy="771.223" rx="9.054" ry="20.302"/>
	<path class="st12" d="M1285.785,559.629c0-44.845,37.057-81.198,82.796-81.198c45.728,0,82.796,36.34,82.796,81.198v285.172
		h-165.592V559.629z"/>
	<g class="st9">
		<path class="st3" d="M1417,844.941V551.043c0-20.617-9.207-39.465-24.236-52.489l0.236-0.097v346.484H1417z"/>
	</g>
</g>
<g>
	<path class="st2" d="M1436.784,596.249c0-44.635,37.058-80.818,82.796-80.818c45.729,0,82.797,36.168,82.797,80.818v248.387
		h-165.593V596.249z"/>
	<path class="st5" d="M1507.105,516.347c6.211-0.905,13.379-0.637,19.389-0.637c28.324,0,71.605,29.141,75.606,73.886l0.276,255.552
		h-36.271V586.696C1566.105,553.703,1538.965,523.867,1507.105,516.347z"/>
	<path class="st13" d="M1495.649,630.198c4.999,0,9.054-9.089,9.054-20.299c0-11.215-4.055-20.304-9.054-20.304
		c-5.003,0-9.058,9.089-9.058,20.304C1486.592,621.109,1490.646,630.198,1495.649,630.198z"/>
	<path class="st13" d="M1518.287,739.512c5,0,9.056-9.089,9.056-20.3c0-11.216-4.056-20.302-9.056-20.302s-9.057,9.086-9.057,20.302
		C1509.23,730.423,1513.287,739.512,1518.287,739.512z"/>
	<ellipse class="st13" cx="1477.538" cy="808.223" rx="9.054" ry="20.302"/>
	<path class="st12" d="M1436.785,596.629c0-44.845,37.057-81.198,82.796-81.198c45.728,0,82.796,36.34,82.796,81.198v248.172
		h-165.592V596.629z"/>
	<g class="st9">
		<path class="st3" d="M1568,844.941V588.043c0-20.617-9.207-39.465-24.236-52.489l0.236-0.097v309.484H1568z"/>
	</g>
</g>
<g>
	<path class="st2" d="M152.784,607.249c0-44.635,37.058-80.818,82.796-80.818c45.729,0,82.797,36.168,82.797,80.818v237.387H152.784
		V607.249z"/>
	<path class="st5" d="M223.105,527.347c6.211-0.905,13.379-0.637,19.389-0.637c28.324,0,71.605,29.141,75.606,73.886l0.276,244.552
		h-36.271V597.696C282.105,564.703,254.965,534.867,223.105,527.347z"/>
	<path class="st13" d="M211.649,641.198c4.999,0,9.054-9.089,9.054-20.299c0-11.215-4.055-20.304-9.054-20.304
		c-5.003,0-9.058,9.089-9.058,20.304C202.592,632.109,206.646,641.198,211.649,641.198z"/>
	<path class="st13" d="M234.287,750.512c5,0,9.056-9.089,9.056-20.3c0-11.216-4.056-20.302-9.056-20.302s-9.057,9.086-9.057,20.302
		C225.23,741.423,229.287,750.512,234.287,750.512z"/>
	<ellipse class="st13" cx="193.538" cy="819.223" rx="9.054" ry="20.302"/>
	<path class="st12" d="M152.785,607.629c0-44.845,37.057-81.198,82.796-81.198c45.728,0,82.796,36.34,82.796,81.198v237.172H152.785
		V607.629z"/>
	<g class="st9">
		<path class="st3" d="M284,844.941V599.043c0-20.617-9.207-39.465-24.236-52.489l0.236-0.097v298.484H284z"/>
	</g>
</g>
<g>
	<path class="st2" d="M0,542.249c0-44.635,37.058-80.818,82.796-80.818c45.729,0,82.797,36.168,82.797,80.818v302.387H0V542.249z"/>
	<path class="st5" d="M70.321,462.347c6.211-0.905,13.379-0.637,19.389-0.637c28.324,0,71.605,29.141,75.606,73.886l0.276,309.552
		h-36.271V532.696C129.321,499.703,102.181,469.867,70.321,462.347z"/>
	<path class="st13" d="M58.865,576.198c4.999,0,9.054-9.089,9.054-20.299c0-11.215-4.055-20.304-9.054-20.304
		c-5.003,0-9.058,9.089-9.058,20.304C49.808,567.109,53.862,576.198,58.865,576.198z"/>
	<path class="st13" d="M81.503,685.512c5,0,9.056-9.089,9.056-20.3c0-11.216-4.056-20.302-9.056-20.302s-9.057,9.086-9.057,20.302
		C72.446,676.423,76.503,685.512,81.503,685.512z"/>
	<ellipse class="st13" cx="40.754" cy="754.223" rx="9.054" ry="20.302"/>
	<path class="st12" d="M0.001,542.629c0-44.845,37.057-81.198,82.796-81.198c45.728,0,82.796,36.34,82.796,81.198v302.172H0.001
		V542.629z"/>
	<g class="st9">
		<path class="st3" d="M131,844.941V534.043c0-20.617-9.207-39.465-24.236-52.489l0.236-0.097v363.484H131z"/>
	</g>
</g>
<g class="st7">
	<path class="st11" d="M224.33,794.797c0-11.23-9.096-20.336-20.356-20.336H0v40.672h203.974
		C215.216,815.133,224.33,806.004,224.33,794.797z"/>
	<path class="st13" d="M223.973,790.979c0.234,1.236,0.357,2.512,0.357,3.818c0,11.207-9.114,20.336-20.356,20.336H0v-7.627h203.974
		C213.91,807.506,222.185,800.375,223.973,790.979z"/>
	<path class="st4" d="M0,812.596h203.974c10.38,0,18.946-7.783,20.199-17.799c0.104,0.834,0.157,1.683,0.157,2.547
		c0,11.207-9.114,20.336-30.356,20.336H0V812.596z"/>
	<path class="st10" d="M203.766,807.941H0v-5h216v0.074C214,805.816,208.587,807.941,203.766,807.941z"/>
</g>
<g class="st7">
	<path class="st11" d="M910.878,702.797c0-11.23,9.096-20.336,20.356-20.336h121.974c11.243,0,20.356,9.127,20.356,20.336
		c0,11.23-9.095,20.336-20.356,20.336H931.234C919.992,723.133,910.878,714.004,910.878,702.797z"/>
	<path class="st13" d="M911.235,698.979c-0.234,1.236-0.357,2.512-0.357,3.818c0,11.207,9.114,20.336,20.356,20.336h121.974
		c11.262,0,20.356-9.105,20.356-20.336c0-1.301-0.122-2.574-0.357-3.809c-1.784,9.406-10.046,16.518-19.999,16.518H931.234
		C921.298,715.506,913.023,708.375,911.235,698.979z"/>
	<path class="st4" d="M911.035,702.797c-0.104,0.834-0.157,1.683-0.157,2.547c0,11.207,9.114,20.336,20.356,20.336h121.974
		c11.262,0,20.356-9.105,20.356-20.336c0-0.861-0.053-1.708-0.156-2.54c-1.252,10.029-9.803,17.792-20.2,17.792H931.234
		C920.854,720.596,912.288,712.812,911.035,702.797z"/>
	<path class="st10" d="M931.234,715.941h121.974c5.165,0,9.864-2,13.45-5H919v0.074C921,713.816,926.413,715.941,931.234,715.941z"
		/>
</g>
</svg>
