<svg viewBox="0 0 183 57" xmlns="http://www.w3.org/2000/svg"><title>42B95528-DA9A-4405-A95E-9F1DD1C6B0CA</title><path d="M172.9 50.255v1.687c-.36.312-.8.542-1.151.712-.34.17-.746.25-1.223.25-.828 0-1.247-.377-1.247-1.152 0-.492.206-.835.606-1.033.204-.105.396-.195.582-.262.35-.132 1.216-.202 2.433-.202zm-15.2 0v1.687c-.36.312-.801.542-1.151.712-.341.17-.746.25-1.224.25-.827 0-1.247-.377-1.247-1.152 0-.492.207-.835.606-1.033.205-.105.397-.195.582-.262.35-.132 1.217-.202 2.434-.202zm21.495-2.874c.69 0 1.2.223 1.531.677.332.455.534 1.167.534 2.114 0 .947-.202 1.648-.534 2.102-.33.445-.84.665-1.531.665-.692 0-1.198-.22-1.52-.665-.322-.454-.595-1.155-.595-2.102 0-.956.273-1.668.595-2.114.322-.454.828-.677 1.52-.677zm-38.76 0c.69 0 1.2.223 1.531.677.332.455.534 1.167.534 2.114 0 .947-.202 1.648-.534 2.102-.33.445-.84.665-1.531.665-.692 0-1.198-.22-1.52-.665-.322-.454-.595-1.155-.595-2.102 0-.956.273-1.668.595-2.114.322-.454.828-.677 1.52-.677zm-23.43 0c1.18 0 1.77.689 1.77 2.185v.214h-3.824c.108-1.496.787-2.398 2.054-2.399zm-11.91 0c.691 0 1.2.223 1.532.677.33.455.533 1.167.533 2.114 0 .947-.202 1.648-.533 2.102-.332.445-.84.665-1.532.665-.691 0-1.199-.22-1.52-.665-.322-.454-.595-1.155-.595-2.102 0-.956.272-1.668.595-2.114.321-.454.829-.677 1.52-.677zm-34.45 0c1.18 0 1.77.689 1.77 2.185v.214H68.59c.108-1.496.788-2.398 2.055-2.399zM179.22 46.36c-1.051 0-1.855.334-2.423.997-.568.664-.856 1.607-.856 2.839 0 1.221.286 2.158.844 2.802.569.644 1.374.962 2.435.962 1.07 0 1.882-.316 2.422-.95.55-.644.759-1.583.759-2.814 0-1.241-.212-2.185-.77-2.839-.55-.663-1.36-.997-2.411-.997zm-7.897 0c-.798 0-1.48.1-2.054.309-.565.198-.844.407-.844.606 0 .094.062.238.179.427.126.19.223.285.32.285.02 0 .14-.062.345-.166a4.352 4.352 0 0 1 1.947-.44c1.071 0 1.685.406 1.685 1.2v.653c-.847.019-1.688.081-2.35.166a3.838 3.838 0 0 0-1.805.677c-.525.369-.784.928-.784 1.674 0 .747.231 1.304.69 1.663.457.359 1.066.534 1.816.534.924 0 1.79-.323 2.433-.962v.665c0 .208.105.309.524.309.419 0 .616-.1.616-.309v-5.059c0-.7-.253-1.251-.759-1.639-.506-.397-1.161-.593-1.96-.593zm-7.09 0c-.933 0-1.726.246-2.374.748-.344.275-.613.676-.82 1.188-.196.511-.298 1.118-.298 1.828 0 1.213.245 2.128.726 2.744.49.606 1.228.95 2.22 1.045l-.237.902a.927.927 0 0 0-.024.167c0 .104.08.178.238.225.166.048.33.117.486.202.167.085.25.212.25.392 0 .331-.283.499-.844.499-.216 0-.461-.048-.736-.143-.275-.094-.438-.142-.487-.142-.186 0-.285.122-.285.368 0 .18.197.338.57.452.373.113.745.164 1.128.165 1.13 0 1.699-.427 1.699-1.27a.895.895 0 0 0-.273-.676c-.177-.161-.344-.26-.511-.297a2.686 2.686 0 0 0-.475-.048h-.06l.179-.748h.059c.618 0 1.165-.074 1.627-.226.461-.16.688-.328.689-.499 0-.113-.06-.26-.179-.439-.117-.19-.222-.285-.32-.285-.067.018-.075.02-.167.06a3.773 3.773 0 0 1-1.662.367c-.825 0-1.416-.22-1.77-.664-.343-.445-.701-1.17-.701-2.174 0-1.809.904-2.719 2.328-2.719.54 0 1.073.117 1.604.344l.106.036.048.024c.088 0 .189-.096.297-.285.117-.199.178-.364.178-.487 0-.17-.225-.319-.677-.451a5.443 5.443 0 0 0-1.532-.202v-.001zm-8.11 0c-.799 0-1.48.1-2.055.309-.564.198-.842.407-.842.606 0 .094.06.238.178.427.126.19.223.285.32.285.02 0 .14-.062.344-.166a4.353 4.353 0 0 1 1.948-.44c1.07 0 1.685.406 1.685 1.2v.653c-.847.019-1.687.081-2.35.166a3.84 3.84 0 0 0-1.805.677c-.525.369-.784.928-.784 1.674 0 .747.231 1.304.689 1.663.458.359 1.068.534 1.817.534.924 0 1.79-.323 2.433-.962v.665c0 .208.105.309.524.309.418 0 .616-.1.616-.309v-5.059c0-.7-.253-1.251-.759-1.639-.506-.397-1.161-.593-1.96-.593zm-10.32 0c-.432 0-.641.086-.641.25 0 .038.019.09.048.177l2.315 6.935c.049.154.246.238.582.238h.5c.336 0 .533-.084.58-.238l2.316-6.911a.721.721 0 0 0 .048-.202c0-.163-.197-.25-.582-.25-.375 0-.581.073-.629.227l-1.936 5.842-1.923-5.842c-.049-.154-.245-.226-.677-.226zm-5.343 0c-1.051 0-1.855.334-2.423.997-.568.664-.856 1.607-.856 2.839 0 1.221.286 2.158.844 2.802.569.644 1.374.962 2.435.962 1.07 0 1.882-.316 2.422-.95.55-.644.759-1.583.759-2.814 0-1.241-.212-2.185-.77-2.839-.55-.663-1.36-.997-2.411-.997zm-10.695 0c-.422 0-.564.099-.564.309v6.982c0 .21.154.309.576.309.423 0 .564-.099.564-.309v-5.236c.531-.668 1.254-1.01 1.96-1.01.482 0 .85.12 1.105.368.265.24.355.583.355 1.022v4.857c0 .21.173.308.595.308.423 0 .545-.098.545-.308v-4.976c0-.725-.076-1.3-.509-1.71-.422-.41-1.037-.606-1.852-.606-.768 0-1.563.324-2.197.974v-.665c0-.21-.154-.309-.577-.31zm-3.794 0c-.423 0-.57.109-.57.32v6.96c0 .211.148.32.57.32.422 0 .57-.109.57-.32v-6.96c0-.211-.148-.32-.57-.32zm-9 0c-1.071 0-1.902.32-2.482.974-.58.654-.867 1.616-.867 2.885 0 1.26.29 2.2.88 2.815.589.615 1.502.926 2.73.926.698 0 1.31-.1 1.841-.309.54-.208.808-.416.808-.605 0-.095-.062-.239-.19-.428-.118-.189-.222-.273-.321-.273-.02 0-.122.036-.309.13a3.809 3.809 0 0 1-1.84.464c-.728 0-1.276-.189-1.64-.558-.363-.37-.57-.675-.629-1.461h4.655c.363-.127.424-.481.487-.855 0-2.472-1.04-3.705-3.123-3.705zm-11.852 0c-1.05 0-1.854.334-2.422.997-.568.664-.856 1.607-.856 2.839 0 1.221.285 2.158.844 2.802.568.644 1.374.962 2.434.962 1.07 0 1.883-.316 2.423-.95.549-.644.76-1.583.76-2.814 0-1.241-.213-2.185-.772-2.839-.55-.663-1.36-.997-2.41-.997zm-10.687 0c-.423 0-.571.099-.571.309v6.982c0 .21.147.309.57.309.423 0 .57-.099.57-.309v-5.236c.53-.668 1.253-1.01 1.96-1.01.482 0 .85.12 1.105.368.265.24.355.583.355 1.022v4.857c0 .21.147.308.57.308.423 0 .57-.098.57-.308v-4.976c0-.725-.077-1.3-.51-1.71-.422-.41-1.037-.606-1.852-.606-.768 0-1.563.324-2.198.974v-.665c0-.21-.147-.309-.57-.31zm-3.8 0c-.423 0-.57.109-.57.32v6.96c0 .211.147.32.57.32.422 0 .569-.109.569-.32v-6.96c0-.211-.147-.32-.57-.32zm-4.81 0c-.727 0-1.317.193-1.77.582-.45.378-.676.856-.676 1.425 0 .568.145.986.44 1.27.294.275.766.51 1.424.69.659.18 1.102.373 1.319.581.226.199.332.474.332.843 0 .36-.125.65-.38.867-.245.208-.569.32-.962.32-.383 0-.71-.044-.985-.13a3.608 3.608 0 0 1-.63-.273 1.96 1.96 0 0 0-.237-.142c-.099 0-.217.095-.344.284-.118.19-.179.333-.179.428 0 .18.257.371.749.57.49.19 1.067.285 1.745.285.678 0 1.264-.215 1.746-.642.49-.425.736-.961.736-1.615 0-.663-.176-1.162-.51-1.484-.325-.331-.941-.628-1.865-.902-.412-.123-.713-.264-.89-.416-.167-.152-.25-.364-.25-.63 0-.264.119-.468.345-.628.235-.171.561-.262.974-.262.422 0 .794.09 1.128.262.118.057.18.083.19.083.088 0 .189-.096.297-.285.117-.2.178-.364.178-.487 0-.152-.201-.293-.594-.416-.393-.123-.83-.178-1.33-.178zm-9.63 0c-.423 0-.571.099-.571.309v6.982c0 .21.147.309.57.309.423 0 .57-.099.57-.309v-5.236c.53-.668 1.252-1.01 1.96-1.01.481 0 .849.12 1.104.368.265.24.356.583.356 1.022v4.857c0 .21.147.308.57.308.423 0 .57-.098.57-.308v-4.976c0-.725-.077-1.3-.51-1.71-.423-.41-1.037-.606-1.852-.606-.768 0-1.564.324-2.198.974v-.665c0-.21-.147-.309-.57-.31zm-5.582 0c-1.071 0-1.902.32-2.482.974-.58.654-.867 1.616-.867 2.885 0 1.26.29 2.2.88 2.815.589.615 1.502.926 2.73.926.698 0 1.311-.1 1.842-.309.54-.208.807-.416.807-.605 0-.095-.062-.239-.19-.428-.118-.189-.222-.273-.32-.273-.02 0-.123.036-.31.13a3.808 3.808 0 0 1-1.84.464c-.727 0-1.276-.189-1.64-.558-.362-.37-.57-.675-.629-1.461h4.655c.363-.127.424-.481.487-.855 0-2.472-1.04-3.705-3.123-3.705zm99.738-2.886c-.334 0-.663.087-.997.273-.334.177-.5.36-.5.547 0 .088.043.189.131.297a.39.39 0 0 0 .297.142c.108 0 .249-.024.416-.083.167-.069.312-.107.44-.107.127 0 .392.045.795.143.403.098.77.154 1.104.154a2.1 2.1 0 0 0 .998-.262c.334-.186.498-.383.499-.57 0-.078-.045-.164-.143-.273-.088-.108-.187-.166-.285-.166-.088 0-.21.038-.368.107a1.188 1.188 0 0 1-.451.083c-.158 0-.441-.044-.844-.143a4.522 4.522 0 0 0-1.092-.142zm-44.376-.154c-.482 0-.571.12-.571.332v.855c0 .212.089.333.57.333.482 0 .57-.12.57-.333v-.855c0-.211-.088-.332-.57-.332zm-35.34 0c-.482 0-.57.12-.57.332v.855c0 .212.088.333.57.333.48 0 .569-.12.569-.333v-.855c0-.211-.089-.332-.57-.332zm-8.55-20.864l-.001 5.331c-1.114.994-2.209 1.762-3.277 2.304-1.07.542-2.337.808-3.812.808-2.56 0-3.835-1.235-3.835-3.705 0-1.565.617-2.657 1.852-3.29.633-.33 1.233-.608 1.805-.819 1.084-.421 3.503-.63 7.267-.63zm19.13-9.168c3.613 0 5.415 2.475 5.415 7.232H94.882c.33-4.757 2.445-7.232 6.329-7.232zm51.929-3.064c-1.293 0-1.9.324-1.9.986v21.992c0 .663.606.998 1.9.998s1.9-.335 1.9-.998V16.637l.677-.772c.421-.542 1.089-1.067 2.007-1.58.919-.51 1.97-.771 3.159-.771 1.189 0 2.148.392 2.886 1.176.737.783 1.15 1.85 1.15 3.206v15.307c0 .662.607.997 1.9.997 1.295 0 1.901-.334 1.901-.997-.044-5.505.06-11.089 0-16.566 1.836-2.077 3.595-3.123 5.463-3.123 1.415 0 2.491.392 3.23 1.176.737.783 1.187 1.85 1.187 3.206v15.307c0 .662.518.997 1.817.997 1.3 0 1.983-.334 1.983-.997V17.54c0-1.445-.308-2.681-.76-3.706-.452-1.022-1.063-1.79-1.816-2.303-1.355-.874-2.88-1.307-4.596-1.307-2.68 0-5.077 1.242-7.184 3.741-1.025-2.499-3.179-3.74-6.46-3.74-2.48 0-4.658 1.003-6.544 3.028V11.21c0-.662-.606-.986-1.9-.986zm-24.32-.036c-1.293 0-1.9.336-1.9.998V26.86c0 2.289 1.03 4.074 2.34 5.368 1.31 1.295 3.216 1.947 5.7 1.947 2.36 0 4.461-1.025 6.4-3.064v2.09c0 .662.652.998 1.912.998 1.26 0 1.888-.297 1.888-.891V11.186c0-.662-.582-.998-1.876-.998s-1.924.336-1.924.998v16.53c-1.626 2.108-3.496 3.159-5.664 3.159-1.476 0-2.611-.385-3.409-1.152-.797-.768-1.567-1.845-1.567-3.23V11.186c0-.662-.606-.998-1.9-.998zm-27.751-.154c-3.283 0-5.812 1.046-7.589 3.124-1.777 2.077-2.66 5.124-2.66 9.143 0 4.02.902 7.009 2.708 8.966 1.806 1.958 4.596 2.932 8.36 2.933 2.137 0 4.023-.335 5.664-.997 1.641-.662 2.459-1.286 2.459-1.888 0-.301-.182-.763-.559-1.366-.377-.602-.72-.903-1.021-.903-.061 0-.379.151-.95.452-1.716.964-3.594 1.449-5.64 1.449-2.23 0-3.899-.584-5.013-1.758-1.114-1.174-1.766-2.75-1.947-5.25h14.274c1.055-.344 1.436-.997 1.497-2.113 0-7.858-3.2-11.791-9.584-11.791zm-23.596 0c-2.469 0-4.58.326-6.342.974-1.761.648-2.648 1.292-2.648 1.924 0 .3.193.751.57 1.354.376.603.708.902 1.01.902.06 0 .412-.167 1.044-.498 1.837-.933 3.841-1.402 6.01-1.402 3.311 0 4.963 1.26 4.963 3.788v2.126c-2.62.06-4.958.22-7.006.475-2.048.257-3.88.984-5.522 2.173-1.641 1.19-2.47 2.966-2.47 5.344 0 2.38.71 4.14 2.126 5.285 1.415 1.145 3.287 1.721 5.605 1.721 2.857 0 5.277-1.016 7.267-3.052v2.055c0 .662.606 1 1.9.997 1.293-.003 1.9-.335 1.9-.997v-16.08c0-2.227-.786-3.963-2.351-5.212-1.566-1.25-3.588-1.877-6.056-1.877zm-21.933 0c-2.861 0-5.28.803-7.268 2.4-1.054.873-1.889 2.126-2.506 3.752-.617 1.626-.926 3.56-.926 5.819 0 4.275.918 7.383 2.755 9.31 1.836 1.927 4.627 2.885 8.36 2.885 1.897 0 3.548-.251 4.964-.748 1.415-.497 2.126-1.014 2.126-1.556 0-.361-.185-.838-.547-1.425-.361-.587-.697-.878-.997-.878a.784.784 0 0 0-.202.07 3.43 3.43 0 0 1-.285.108c-1.565.783-3.27 1.175-5.106 1.175-2.53 0-4.335-.71-5.404-2.125s-1.864-3.708-1.864-6.9c0-5.75 2.45-8.633 6.816-8.633 1.656 0 3.29.359 4.917 1.08.06.032.121.057.166.072l.179.072c.074.03.123.047.154.047.27 0 .579-.309.926-.926.346-.617.523-1.129.523-1.52 0-.542-.694-1.015-2.079-1.437-1.385-.421-2.956-.641-4.702-.641zM30.899 3.8c2.235 0 3.301 1.221 3.301 3.455v23.49c0 2.234-1.065 3.455-3.301 3.455H7.409c-2.234 0-3.609-1.221-3.609-3.455C3.841 17.019 16.635 3.758 30.9 3.8zm-23.5 0l.95 2.47 2.647.143-2.054 1.674.677 2.553-2.22-1.437-2.222 1.437.677-2.553L3.8 6.413l2.648-.143.95-2.47zM116.658 0c-1.292 0-1.9.336-1.9.997v26.969c0 2.319.593 3.938 1.782 4.856a6.457 6.457 0 0 0 4.05 1.378c2.197 0 3.289-.45 3.289-1.354 0-.3-.092-.725-.273-1.283-.181-.557-.406-.843-.677-.843-.06 0-.268.044-.63.12-.36.075-.794.106-1.306.106-1.625 0-2.434-1.108-2.434-3.337V.997c0-.661-.607-.997-1.9-.997zM6.08 0A6.076 6.076 0 0 0 0 6.08v25.84A6.076 6.076 0 0 0 6.08 38h25.84C35.28 38 38 35.28 38 31.92V6.08C38 2.719 35.28 0 31.92 0H6.08z" fill="#414449" fill-rule="evenodd"></path></svg>
