<?xml version="1.0" encoding="UTF-8" standalone="no"?>
<!-- Created with Inkscape (http://www.inkscape.org/) -->

<svg
   xmlns:dc="http://purl.org/dc/elements/1.1/"
   xmlns:cc="http://creativecommons.org/ns#"
   xmlns:rdf="http://www.w3.org/1999/02/22-rdf-syntax-ns#"
   xmlns:svg="http://www.w3.org/2000/svg"
   xmlns="http://www.w3.org/2000/svg"
   xmlns:sodipodi="http://sodipodi.sourceforge.net/DTD/sodipodi-0.dtd"
   xmlns:inkscape="http://www.inkscape.org/namespaces/inkscape"
   width="280"
   height="63"
   id="svg3980"
   version="1.1"
   inkscape:version="0.48.4 r9939"
   sodipodi:docname="gravento_logo_flat.svg">
  <defs
     id="defs3982" />
  <sodipodi:namedview
     id="base"
     pagecolor="#ffffff"
     bordercolor="#666666"
     borderopacity="1.0"
     inkscape:pageopacity="0.0"
     inkscape:pageshadow="2"
     inkscape:zoom="2.8"
     inkscape:cx="225.09084"
     inkscape:cy="34.461918"
     inkscape:document-units="px"
     inkscape:current-layer="layer1"
     showgrid="false"
     inkscape:window-width="1920"
     inkscape:window-height="1018"
     inkscape:window-x="-8"
     inkscape:window-y="-8"
     inkscape:window-maximized="1" />
  <metadata
     id="metadata3985">
    <rdf:RDF>
      <cc:Work
         rdf:about="">
        <dc:format>image/svg+xml</dc:format>
        <dc:type
           rdf:resource="http://purl.org/dc/dcmitype/StillImage" />
        <dc:title></dc:title>
      </cc:Work>
    </rdf:RDF>
  </metadata>
  <g
     inkscape:label="Layer 1"
     inkscape:groupmode="layer"
     id="layer1"
     transform="translate(0,-989.36218)">
    <rect
       style="fill:none;stroke:#782121;stroke-width:0;stroke-miterlimit:4;stroke-opacity:1;stroke-dasharray:none"
       id="rect3948-5"
       width="280"
       height="63"
       x="-0.29360557"
       y="990.11218"
       inkscape:export-filename="G:\Documentos\Dropbox\Gravento\Design\logo_gravento_home.png"
       inkscape:export-xdpi="90"
       inkscape:export-ydpi="90" />
    <g
       id="g3964"
       transform="matrix(0.65099361,0,0,0.65099361,-701.23366,778.7592)">
      <path
         style="font-size:133.52177429px;font-style:normal;font-weight:normal;line-height:125%;letter-spacing:0px;word-spacing:0px;fill:#840808;fill-opacity:1;stroke:#782121;stroke-width:1.03451967;stroke-linecap:round;stroke-linejoin:round;stroke-miterlimit:4;stroke-opacity:1;stroke-dasharray:none;font-family:Sans"
         d="m 1480.9737,364.64854 c 0,13.52889 -10.9348,24.4962 -24.4236,24.4962 -13.4888,0 -24.4236,-10.96731 -24.4236,-24.4962 0,-13.52888 10.9348,-24.4962 24.4236,-24.4962 13.4888,0 24.4236,10.96732 24.4236,24.4962 z"
         id="path3120"
         inkscape:connector-curvature="0"
         inkscape:transform-center-y="2.5147356"
         inkscape:export-filename="F:\Documentos\Dropbox\gravento_logo.png"
         inkscape:export-xdpi="89"
         inkscape:export-ydpi="89" />
      <path
         d="m 1164.975,364.24308 0,26.21281 c 0,7.47903 -2.7322,13.87942 -8.1966,19.20123 -5.4645,5.32176 -11.9724,7.98265 -19.5238,7.98268 -5.177,-3e-5 -9.6352,-0.88114 -13.3747,-2.64334 -3.7395,-1.76225 -7.1192,-4.65686 -10.1388,-8.68383 l 6.2544,-4.31559 c 2.087,2.87703 4.5323,4.94485 7.3359,6.20344 2.8035,1.25856 6.1112,1.88785 9.9232,1.88787 5.1769,-2e-5 9.6894,-1.88789 13.5376,-5.66359 3.8481,-3.77574 5.7722,-8.21586 5.7722,-13.32037 -0.073,-0.71982 -0.1086,-1.25968 -0.1086,-1.61958 0,-1.14995 0,-2.28234 0,-3.39717 0,-1.11483 0.036,-2.211 0.1086,-3.28853 -1.2948,1.50985 -3.4883,2.74977 -6.5803,3.71976 -3.0922,0.96999 -6.0406,1.45498 -8.8452,1.45498 -7.479,0 -13.4301,-2.31908 -17.8532,-6.95726 -4.4231,-4.63818 -6.6347,-10.44441 -6.6347,-17.4187 0,-6.61655 2.3915,-12.24392 7.1746,-16.88214 4.783,-4.63814 10.5541,-6.95722 17.3133,-6.95727 6.8316,5e-5 12.5122,2.19349 17.0418,6.58035 4.5295,4.38695 6.7943,10.35502 6.7943,17.90425 z m -23.8361,-16.82453 c -4.5317,4e-5 -8.4155,1.58177 -11.6514,4.74517 -3.2359,3.16348 -4.8538,7.04619 -4.8538,11.64813 0,4.53177 1.5823,8.30749 4.7468,11.32718 3.1645,3.01971 7.084,4.52956 11.7584,4.52955 4.602,10e-6 8.4852,-1.54606 11.6498,-4.63819 3.1645,-3.0921 4.7468,-6.97535 4.7468,-11.64977 0,-4.38688 -1.6004,-8.14394 -4.8011,-11.27122 -3.2008,-3.12719 -7.066,-4.69081 -11.5955,-4.69085 z"
         style="font-size:136.32089233px;font-style:normal;font-variant:normal;font-weight:normal;font-stretch:normal;text-align:start;line-height:125%;letter-spacing:0px;word-spacing:0px;writing-mode:lr-tb;text-anchor:start;fill:#1c1c24;fill-opacity:1;stroke:none;font-family:Rondalo;-inkscape-font-specification:Rondalo"
         id="path3912"
         inkscape:connector-curvature="0"
         inkscape:export-filename="F:\Documentos\Dropbox\gravento_logo.png"
         inkscape:export-xdpi="89"
         inkscape:export-ydpi="89" />
      <path
         d="m 1181.5724,366.29389 0,20.92614 -7.874,0 0,-19.52383 c 0,-0.93485 0,-1.74409 0,-2.42771 0,-0.68358 0,-1.24045 0,-1.6706 0,-5.39418 0.4493,-9.29555 1.348,-11.7041 0.8986,-2.40848 2.3191,-4.58382 4.2612,-6.52604 2.3723,-2.37227 4.8533,-4.04397 7.4429,-5.0151 2.5895,-0.97104 5.6816,-1.45658 9.2763,-1.45663 l 0,7.87405 c -2.7322,4e-5 -5.0513,0.3956 -6.9572,1.1867 -1.906,0.79117 -3.4702,2.28347 -4.6925,4.47688 -1.2224,2.19349 -1.9954,4.0989 -2.3191,5.71626 -0.3237,1.61741 -0.4856,3.68468 -0.4856,6.2018 0,0.86248 0,1.50987 0,1.94218 z"
         style="font-size:136.32089233px;font-style:normal;font-variant:normal;font-weight:normal;font-stretch:normal;text-align:start;line-height:125%;letter-spacing:0px;word-spacing:0px;writing-mode:lr-tb;text-anchor:start;fill:#000000;fill-opacity:1;stroke:none;font-family:Rondalo;-inkscape-font-specification:Rondalo"
         id="path3914"
         inkscape:connector-curvature="0"
         inkscape:export-filename="F:\Documentos\Dropbox\gravento_logo.png"
         inkscape:export-xdpi="89"
         inkscape:export-ydpi="89" />
      <path
         sodipodi:nodetypes="cssssscccccccsssssccc"
         d="m 1223.3029,347.41855 c -4.5318,4e-5 -8.4156,1.58177 -11.6514,4.74517 -3.2359,3.16348 -4.8538,7.04619 -4.8538,11.64813 0,4.602 1.6004,8.50335 4.8011,11.70409 3.2008,3.20076 7.1021,4.80114 11.7041,4.80113 4.602,10e-6 8.4852,-1.65413 11.6498,-4.96243 3.1645,-3.30827 4.7468,-7.2996 4.7468,-11.97402 0,-4.4571 -1.6185,-8.23173 -4.8554,-11.32388 -3.237,-3.09209 -7.0841,-4.63815 -11.5412,-4.63819 z m 23.9331,12.64228 11.0162,27.37646 -9.6022,-0.21726 -4.9608,-10.78732 c -2.0849,3.45204 -4.9614,6.23857 -8.6295,8.3596 -3.6683,2.12103 -7.5872,3.18154 -11.7568,3.18154 -6.7592,0 -12.5303,-2.39095 -17.3133,-7.17289 -4.7831,-4.78191 -7.1746,-10.51626 -7.1746,-17.20307 0,-6.61655 2.3915,-12.24392 7.1746,-16.88214 4.783,-4.63814 10.5541,-6.95722 17.3133,-6.95727 5.9692,5e-5 11.1467,1.94167 15.5325,5.82488 4.3858,3.8833 6.123,8.56925 8.4006,14.47747 z"
         style="font-size:136.32089233px;font-style:normal;font-variant:normal;font-weight:normal;font-stretch:normal;text-align:start;line-height:125%;letter-spacing:0px;word-spacing:0px;writing-mode:lr-tb;text-anchor:start;fill:#000000;fill-opacity:1;stroke:none;font-family:Rondalo;-inkscape-font-specification:Rondalo"
         id="path3916"
         inkscape:connector-curvature="0"
         inkscape:export-filename="F:\Documentos\Dropbox\gravento_logo.png"
         inkscape:export-xdpi="89"
         inkscape:export-ydpi="89" />
      <path
         sodipodi:nodetypes="ccccsscccssssscccccccsccccccccc"
         d="m 1347.7414,367.04772 -34.7321,0 c -1.5823,10e-6 -2.7508,0.0719 -3.5058,0.21561 -0.7549,0.14377 -1.2048,0.64796 -1.3496,1.51259 -0.4302,2.29991 1.0084,4.83407 4.3156,7.60248 3.3071,2.76843 6.7592,4.15265 10.3561,4.15264 2.2998,10e-6 4.6721,-0.53876 7.1169,-1.61629 1.6547,-0.7198 1.7484,2.24218 3.6907,0.80475 l 6.5567,1.56866 c -2.7322,2.29989 -5.4644,3.98914 -8.1966,5.06776 -2.7323,1.07863 -5.8606,1.61793 -9.385,1.61793 -6.6144,0 -12.2412,-2.42661 -16.8805,-7.27987 -4.6393,-4.85323 -6.9589,-10.65946 -6.9589,-17.41869 0,-6.4739 2.3734,-12.01185 7.1202,-16.61386 4.7468,-4.60192 10.4274,-6.9029 17.0418,-6.90295 6.7614,5e-5 12.6049,2.42722 17.5306,7.28151 4.9256,4.85439 7.3885,10.62496 7.3885,17.31172 0,1.22239 -0.036,2.12106 -0.1086,2.69601 z m -9.1677,-8.84514 c -0.7923,-3.16231 -2.5726,-5.75024 -5.341,-7.76378 -2.7685,-2.01345 -5.95,-3.02021 -9.5447,-3.02025 -3.5244,4e-5 -6.9227,1.25807 -10.1948,3.77408 -3.2721,2.51609 -4.7643,5.03269 -4.4768,7.5498 0.072,0.35995 0.1023,0.7796 0.6773,0.92332 0.575,0.14377 1.5161,0.0479 2.2359,0.0478 0.6474,3e-5 1.1148,3e-5 1.4023,0 l 20.0637,0 c 0.79,3e-5 1.4012,3e-5 1.8336,0 1.2223,3e-5 2.4328,0.22817 3.044,0.0131 0.6111,-0.21504 0.4289,-0.90665 0.3005,-1.52402 z"
         style="font-size:136.32089233px;font-style:normal;font-variant:normal;font-weight:normal;font-stretch:normal;text-align:start;line-height:125%;letter-spacing:0px;word-spacing:0px;writing-mode:lr-tb;text-anchor:start;fill:#000000;fill-opacity:1;stroke:none;font-family:Rondalo;-inkscape-font-specification:Rondalo"
         id="path3918"
         inkscape:connector-curvature="0"
         inkscape:export-filename="F:\Documentos\Dropbox\gravento_logo.png"
         inkscape:export-xdpi="89"
         inkscape:export-ydpi="89" />
      <path
         d="m 1362.3143,358.85107 0,28.36896 -7.4428,0 0,-31.06497 c 0,-5.8243 2.0497,-10.17499 6.1491,-13.05209 3.5947,-2.5171 8.2329,-3.77568 13.9146,-3.77573 5.6092,5e-5 10.2112,1.32995 13.8059,3.9897 4.0994,3.02194 6.1491,7.30131 6.1491,12.83812 l 0,31.06497 -7.874,0 0,-27.39788 c -10e-5,-4.38687 -1.0968,-7.56896 -3.2902,-9.54629 -2.1935,-1.97725 -5.1238,-2.96589 -8.7908,-2.96593 -3.5245,4e-5 -6.5091,0.98868 -8.9538,2.96593 -2.4447,1.97733 -3.6671,4.83572 -3.6671,8.57521 z"
         style="font-size:136.32089233px;font-style:normal;font-variant:normal;font-weight:normal;font-stretch:normal;text-align:start;line-height:125%;letter-spacing:0px;word-spacing:0px;writing-mode:lr-tb;text-anchor:start;fill:#000000;fill-opacity:1;stroke:none;font-family:Rondalo;-inkscape-font-specification:Rondalo"
         id="path3920"
         inkscape:connector-curvature="0"
         inkscape:export-filename="F:\Documentos\Dropbox\gravento_logo.png"
         inkscape:export-xdpi="89"
         inkscape:export-ydpi="89" />
      <path
         d="m 1412.6694,325.73529 0,6.79762 c 0,1.07759 0.018,2.24563 0.054,3.50416 0.036,1.25862 0.1618,2.03165 0.3769,2.31909 0.2897,0.28753 0.8295,0.44938 1.6196,0.48555 0.79,0.0362 1.6525,0.0544 2.5873,0.0543 l 7.0116,0 0,8.0913 -6.6857,0 c -1.0073,4e-5 -2.0146,0.0176 -3.0219,0.0527 -1.0073,0.0351 -1.5822,0.3402 -1.7249,0.91513 -0.072,0.2173 -0.1086,0.79337 -0.1086,1.72821 0,0.93492 0,1.68985 0,2.26478 0,0.93491 0,1.79792 0,2.58902 0,0.79117 0,1.25806 0,1.40067 l 0,7.01159 c 0,3.09214 0.2875,5.46555 0.8625,7.12023 0.5749,1.6547 1.366,3.12834 2.3734,4.42091 0.5749,0.86467 1.9235,1.90818 4.0456,3.13054 2.1221,1.22236 3.8657,1.83355 5.2307,1.83354 l 0,8.08802 c -3.5947,-0.35991 -6.7943,-1.27668 -9.5989,-2.75032 -2.8047,-1.47364 -5.2143,-3.64899 -7.2289,-6.52605 -1.5098,-2.15723 -2.516,-4.35013 -3.0186,-6.57871 -0.5026,-2.22856 -0.7538,-4.49387 -0.7538,-6.79598 0,-1.58224 0,-2.66087 0,-3.23586 l 0,-5.28668 c 0,-0.28745 0,-0.50252 0,-0.64519 0,-0.64736 0,-1.18722 0,-1.61958 0,-0.79001 0,-1.40119 0,-1.83356 0,-2.22962 -0.1081,-3.66759 -0.3243,-4.31393 -0.2161,-0.64626 -1.1516,-0.9694 -2.8063,-0.96944 -0.8624,4e-5 -1.5098,4e-5 -1.9421,0 l 0,-8.09131 c 0.5771,5e-5 1.0446,5e-5 1.4023,0 1.8697,5e-5 2.9133,-0.17991 3.1305,-0.53986 0.1427,-0.1426 0.2502,-0.6457 0.3226,-1.50931 0.072,-0.8635 0.1086,-1.61898 0.1086,-2.26642 0,-1.22231 0,-1.97724 0,-2.26478 l 0,-6.58036 z"
         style="font-size:136.32089233px;font-style:normal;font-variant:normal;font-weight:normal;font-stretch:normal;text-align:start;line-height:125%;letter-spacing:0px;word-spacing:0px;writing-mode:lr-tb;text-anchor:start;fill:#000000;fill-opacity:1;stroke:none;font-family:Rondalo;-inkscape-font-specification:Rondalo"
         id="path3922"
         inkscape:connector-curvature="0"
         inkscape:export-filename="F:\Documentos\Dropbox\gravento_logo.png"
         inkscape:export-xdpi="89"
         inkscape:export-ydpi="89" />
      <path
         inkscape:connector-curvature="0"
         id="path3924"
         style="font-size:136.32089233px;font-style:normal;font-variant:normal;font-weight:normal;font-stretch:normal;text-align:start;line-height:125%;letter-spacing:0px;word-spacing:0px;writing-mode:lr-tb;text-anchor:start;fill:#1c1c24;fill-opacity:1;stroke:#1c1c24;stroke-width:1;stroke-miterlimit:4;stroke-opacity:1;stroke-dasharray:none;font-family:Rondalo;-inkscape-font-specification:Rondalo"
         d="m 1181.5724,366.29389 0,20.92614 -7.874,0 0,-19.52383 c 0,-0.93485 0,-1.74409 0,-2.42771 0,-0.68358 0,-1.24045 0,-1.6706 0,-5.39418 0.4493,-9.29555 1.348,-11.7041 0.8986,-2.40848 2.3191,-4.58382 4.2612,-6.52604 2.3723,-2.37227 4.8533,-4.04397 7.4429,-5.0151 2.5895,-0.97104 5.6816,-1.45658 9.2763,-1.45663 l 0,7.87405 c -2.7322,4e-5 -5.0513,0.3956 -6.9572,1.1867 -1.906,0.79117 -3.4702,2.28347 -4.6925,4.47688 -1.2224,2.19349 -1.9954,4.0989 -2.3191,5.71626 -0.3237,1.61741 -0.4856,3.68468 -0.4856,6.2018 0,0.86248 0,1.50987 0,1.94218 z"
         inkscape:export-filename="F:\Documentos\Dropbox\gravento_logo.png"
         inkscape:export-xdpi="89"
         inkscape:export-ydpi="89" />
      <path
         inkscape:connector-curvature="0"
         id="path3926"
         style="font-size:136.32089233px;font-style:normal;font-variant:normal;font-weight:normal;font-stretch:normal;text-align:start;line-height:125%;letter-spacing:0px;word-spacing:0px;writing-mode:lr-tb;text-anchor:start;fill:#1c1c24;fill-opacity:1;stroke:#1c1c24;stroke-width:1;stroke-miterlimit:4;stroke-opacity:1;stroke-dasharray:none;font-family:Rondalo;-inkscape-font-specification:Rondalo"
         d="m 1223.3029,347.41855 c -4.5318,4e-5 -8.4156,1.58177 -11.6514,4.74517 -3.2359,3.16348 -4.8538,7.04619 -4.8538,11.64813 0,4.602 1.6004,8.50335 4.8011,11.70409 3.2008,3.20076 7.1021,4.80114 11.7041,4.80113 4.602,10e-6 8.4852,-1.65413 11.6498,-4.96243 3.1645,-3.30827 4.7468,-7.2996 4.7468,-11.97402 0,-4.4571 -1.6185,-8.23173 -4.8554,-11.32388 -3.237,-3.09209 -7.0841,-4.63815 -11.5412,-4.63819 z m 23.9331,12.64228 11.0162,27.37646 -9.6022,-0.21726 -4.9608,-10.78732 c -2.0849,3.45204 -4.9614,6.23857 -8.6295,8.3596 -3.6683,2.12103 -7.5872,3.18154 -11.7568,3.18154 -6.7592,0 -12.5303,-2.39095 -17.3133,-7.17289 -4.7831,-4.78191 -7.1746,-10.51626 -7.1746,-17.20307 0,-6.61655 2.3915,-12.24392 7.1746,-16.88214 4.783,-4.63814 10.5541,-6.95722 17.3133,-6.95727 5.9692,5e-5 11.1467,1.94167 15.5325,5.82488 4.3858,3.8833 6.123,8.56925 8.4006,14.47747 z"
         sodipodi:nodetypes="cssssscccccccsssssccc"
         inkscape:export-filename="F:\Documentos\Dropbox\gravento_logo.png"
         inkscape:export-xdpi="89"
         inkscape:export-ydpi="89" />
      <path
         inkscape:connector-curvature="0"
         id="path3928"
         style="font-size:136.32089233px;font-style:normal;font-variant:normal;font-weight:normal;font-stretch:normal;text-align:start;line-height:125%;letter-spacing:0px;word-spacing:0px;writing-mode:lr-tb;text-anchor:start;fill:#1c1c24;fill-opacity:1;stroke:#1c1c24;stroke-width:1;stroke-miterlimit:4;stroke-opacity:1;stroke-dasharray:none;font-family:Rondalo;-inkscape-font-specification:Rondalo"
         d="m 1347.7414,367.04772 -34.7321,0 c -1.5823,10e-6 -2.7508,0.0719 -3.5058,0.21561 -0.7549,0.14377 -1.2048,0.64796 -1.3496,1.51259 -0.4302,2.29991 1.0084,4.83407 4.3156,7.60248 3.3071,2.76843 6.7592,4.15265 10.3561,4.15264 2.2998,10e-6 4.6721,-0.53876 7.1169,-1.61629 1.9861,-0.7987 2.8691,0.0167 5.5215,0.86789 l 4.7259,1.50552 c -2.7322,2.29989 -5.4644,3.98914 -8.1966,5.06776 -2.7323,1.07863 -5.8606,1.61793 -9.385,1.61793 -6.6144,0 -12.2412,-2.42661 -16.8805,-7.27987 -4.6393,-4.85323 -6.9589,-10.65946 -6.9589,-17.41869 0,-6.4739 2.3734,-12.01185 7.1202,-16.61386 4.7468,-4.60192 10.4274,-6.9029 17.0418,-6.90295 6.7614,5e-5 12.6049,2.42722 17.5306,7.28151 4.9256,4.85439 7.3885,10.62496 7.3885,17.31172 0,1.22239 -0.036,2.12106 -0.1086,2.69601 z m -9.1677,-8.84514 c -0.7923,-3.16231 -2.5726,-5.75024 -5.341,-7.76378 -2.7685,-2.01345 -5.95,-3.02021 -9.5447,-3.02025 -3.5244,4e-5 -6.9227,1.25807 -10.1948,3.77408 -3.2721,2.51609 -4.7643,5.03269 -4.4768,7.5498 0.072,0.35995 0.1023,0.7796 0.6773,0.92332 0.575,0.14377 1.5161,0.0479 2.2359,0.0478 0.6474,3e-5 1.1148,3e-5 1.4023,0 l 20.0637,0 c 0.79,3e-5 1.4012,3e-5 1.8336,0 1.2223,3e-5 2.4328,0.22817 3.044,0.0131 0.6111,-0.21504 0.4289,-0.90665 0.3005,-1.52402 z"
         sodipodi:nodetypes="ccccsscccssssscccccccsccccccccc"
         inkscape:export-filename="F:\Documentos\Dropbox\gravento_logo.png"
         inkscape:export-xdpi="89"
         inkscape:export-ydpi="89" />
      <path
         inkscape:connector-curvature="0"
         id="path3930"
         style="font-size:136.32089233px;font-style:normal;font-variant:normal;font-weight:normal;font-stretch:normal;text-align:start;line-height:125%;letter-spacing:0px;word-spacing:0px;writing-mode:lr-tb;text-anchor:start;fill:#1c1c24;fill-opacity:1;stroke:#1c1c24;stroke-width:1;stroke-miterlimit:4;stroke-opacity:1;stroke-dasharray:none;font-family:Rondalo;-inkscape-font-specification:Rondalo"
         d="m 1362.3143,358.85107 0,28.36896 -7.4428,0 0,-31.06497 c 0,-5.8243 2.0497,-10.17499 6.1491,-13.05209 3.5947,-2.5171 8.2329,-3.77568 13.9146,-3.77573 5.6092,5e-5 10.2112,1.32995 13.8059,3.9897 4.0994,3.02194 6.1491,7.30131 6.1491,12.83812 l 0,31.06497 -7.874,0 0,-27.39788 c -10e-5,-4.38687 -1.0968,-7.56896 -3.2902,-9.54629 -2.1935,-1.97725 -5.1238,-2.96589 -8.7908,-2.96593 -3.5245,4e-5 -6.5091,0.98868 -8.9538,2.96593 -2.4447,1.97733 -3.6671,4.83572 -3.6671,8.57521 z"
         inkscape:export-filename="F:\Documentos\Dropbox\gravento_logo.png"
         inkscape:export-xdpi="89"
         inkscape:export-ydpi="89" />
      <path
         inkscape:connector-curvature="0"
         id="path3932"
         style="font-size:136.32089233px;font-style:normal;font-variant:normal;font-weight:normal;font-stretch:normal;text-align:start;line-height:125%;letter-spacing:0px;word-spacing:0px;writing-mode:lr-tb;text-anchor:start;fill:#1c1c24;fill-opacity:1;stroke:#1c1c24;stroke-width:1;stroke-miterlimit:4;stroke-opacity:1;stroke-dasharray:none;font-family:Rondalo;-inkscape-font-specification:Rondalo"
         d="m 1412.6694,325.73529 0,6.79762 c 0,1.07759 0.018,2.24563 0.054,3.50416 0.036,1.25862 0.1618,2.03165 0.3769,2.31909 0.2897,0.28753 0.8295,0.44938 1.6196,0.48555 0.79,0.0362 1.6525,0.0544 2.5873,0.0543 l 7.0116,0 0,8.0913 -6.6857,0 c -1.0073,4e-5 -2.0146,0.0176 -3.0219,0.0527 -1.0073,0.0351 -1.5822,0.3402 -1.7249,0.91513 -0.072,0.2173 -0.1086,0.79337 -0.1086,1.72821 0,0.93492 0,1.68985 0,2.26478 0,0.93491 0,1.79792 0,2.58902 0,0.79117 0,1.25806 0,1.40067 l 0,7.01159 c 0,3.09214 0.2875,5.46555 0.8625,7.12023 0.5749,1.6547 1.366,3.12834 2.3734,4.42091 0.5749,0.86467 1.9235,1.90818 4.0456,3.13054 2.1221,1.22236 3.8657,1.83355 5.2307,1.83354 l 0,8.08802 c -3.5947,-0.35991 -6.7943,-1.27668 -9.5989,-2.75032 -2.8047,-1.47364 -5.2143,-3.64899 -7.2289,-6.52605 -1.5098,-2.15723 -2.516,-4.35013 -3.0186,-6.57871 -0.5026,-2.22856 -0.7538,-4.49387 -0.7538,-6.79598 0,-1.58224 0,-2.66087 0,-3.23586 l 0,-5.28668 c 0,-0.28745 0,-0.50252 0,-0.64519 0,-0.64736 0,-1.18722 0,-1.61958 0,-0.79001 0,-1.40119 0,-1.83356 0,-2.22962 -0.1081,-3.66759 -0.3243,-4.31393 -0.2161,-0.64626 -1.1516,-0.9694 -2.8063,-0.96944 -0.8624,4e-5 -1.5098,4e-5 -1.9421,0 l 0,-8.09131 c 0.5771,5e-5 1.0446,5e-5 1.4023,0 1.8697,5e-5 2.9133,-0.17991 3.1305,-0.53986 0.1427,-0.1426 0.2502,-0.6457 0.3226,-1.50931 0.072,-0.8635 0.1086,-1.61898 0.1086,-2.26642 0,-1.22231 0,-1.97724 0,-2.26478 l 0,-6.58036 z"
         inkscape:export-filename="F:\Documentos\Dropbox\gravento_logo.png"
         inkscape:export-xdpi="89"
         inkscape:export-ydpi="89" />
      <g
         transform="matrix(1.122489,0,0,0.77066685,1063.3653,146.42306)"
         style="font-size:86.54895782px;font-style:normal;font-weight:normal;line-height:125%;letter-spacing:0px;word-spacing:0px;fill:#1c1c24;fill-opacity:1;stroke:#1c1c24;stroke-opacity:1;font-family:Sans"
         id="g3938"
         inkscape:export-filename="F:\Documentos\Dropbox\gravento_logo.png"
         inkscape:export-xdpi="89"
         inkscape:export-ydpi="89">
        <path
           d="m 188.08409,290.03482 c 0.51766,2e-5 1.67102,-2.27851 3.46006,-6.8356 1.26954,-3.28922 3.15936,-8.51143 5.66947,-15.66666 2.51005,-7.15513 4.51521,-12.66524 6.01548,-16.53035 l 8.39394,0 -23.80043,62.22819 -23.5416,-62.22819 8.82975,0 c 3.23114,9.40471 5.85655,16.99218 7.87625,22.76242 3.86503,10.84682 6.23072,16.27021 7.09708,16.27019 z"
           style="font-variant:normal;font-stretch:normal;fill:#1c1c24;fill-opacity:1;stroke:#1c1c24;font-family:Rondalo;-inkscape-font-specification:Rondalo"
           id="path3940"
           inkscape:connector-curvature="0" />
      </g>
    </g>
  </g>
</svg>
