<?xml version="1.0" encoding="UTF-8" standalone="no"?>
<svg width="301px" height="300px" viewBox="0 0 301 300" version="1.1" xmlns="http://www.w3.org/2000/svg" xmlns:xlink="http://www.w3.org/1999/xlink" xmlns:sketch="http://www.bohemiancoding.com/sketch/ns">
    <!-- Generator: Sketch 3.3.2 (12043) - http://www.bohemiancoding.com/sketch -->
    <title>Slice 1</title>
    <desc>Created with Sketch.</desc>
    <defs></defs>
    <g id="Page-1" stroke="none" stroke-width="1" fill="none" fill-rule="evenodd" sketch:type="MSPage">
        <g id="braziljs" sketch:type="MSLayerGroup">
            <g id="Page-1" sketch:type="MSShapeGroup">
                <g id="braziljs" transform="translate(0.374062, 0.000000)">
                    <g id="Group" transform="translate(23.940000, 59.850000)">
                        <path d="M202.801725,176.755005 L34.0209844,176.755005 L40.5229388,152.903284 L2.75085562,65.5552012 L57.557745,65.5544531 L74.4795844,2.60571938 L249.091959,2.60571938 L202.801725,176.755005 L202.801725,176.755005 Z" id="Shape" fill="#000000"></path>
                        <path d="M202.801725,174.51063 L95.8797,174.51063 L34.0209844,174.51063 C34.7421769,175.457756 35.4641175,176.404134 36.18531,177.352009 C38.3526281,169.400936 40.5199463,161.450612 42.6872644,153.500287 C43.0673119,152.106531 41.6032313,149.788091 41.0728106,148.560418 C39.6229444,145.209566 38.1738263,141.857218 36.7247081,138.506366 C27.7427194,117.734676 18.7607306,96.9644812 9.77799375,76.1935388 C8.08124625,72.2696231 6.38449875,68.3464556 4.68775125,64.4232881 C4.04211938,65.5492162 3.39573938,66.6743963 2.7501075,67.8003244 C21.0185719,67.8003244 39.2877844,67.8003244 57.5569969,67.7995763 C58.5505069,67.7995763 59.4617231,67.1150419 59.7213225,66.1514569 C65.362185,45.168795 71.0022994,24.185385 76.6431619,3.201975 C75.9219694,3.75109875 75.2000288,4.3002225 74.4788363,4.85009438 L179.948003,4.85009438 L249.091211,4.85009438 C248.370019,3.90296813 247.648078,2.95584188 246.926886,2.00946375 C238.001006,35.5875581 229.075875,69.1664006 220.150744,102.744495 C213.645797,127.215664 207.14085,151.687581 200.636651,176.158749 C199.892267,178.959729 204.221666,180.147004 204.964554,177.352757 C213.890434,143.773914 222.815565,110.19582 231.740696,76.6177256 C238.245643,52.1465569 244.75059,27.67464 251.254789,3.20347125 C251.629599,1.79475188 250.559781,0.362840625 249.090463,0.362840625 L143.620549,0.362840625 L74.4780881,0.362840625 C73.4845781,0.362840625 72.5733619,1.047375 72.3137625,2.01096 C66.6729,22.9936219 61.0327856,43.9770319 55.3919231,64.9604419 C56.1131156,64.4113181 56.8350563,63.8621944 57.5562488,63.3123225 C39.2877844,63.3123225 21.0185719,63.3123225 2.74935938,63.3130706 C0.89326125,63.3130706 0.16009875,65.1841312 0.811715625,66.6901069 C7.55157375,82.275795 14.29218,97.8622312 21.03129,113.448667 C25.3906144,123.529652 29.7499388,133.609888 34.1092631,143.690873 C35.3504025,146.561428 36.5915419,149.431984 37.8334294,152.301791 C38.0668444,152.843434 38.3010075,153.38358 38.5351706,153.924474 C38.8703306,154.699532 38.56734,151.5402 38.2905338,152.556154 C38.0877919,153.300538 37.88505,154.044922 37.68156,154.789307 C35.7394275,161.912205 33.7980431,169.036599 31.8551625,176.159497 C31.4713744,177.568217 32.5576519,179.000876 34.0194881,179.000876 L140.941513,179.000876 L202.800229,179.000876 C205.696221,178.99938 205.696221,174.51063 202.801725,174.51063 L202.801725,174.51063 L202.801725,174.51063 Z" id="Shape" fill="#FFFFFF"></path>
                    </g>
                    <path d="M72.5329631,203.834137 L119.183794,203.834137 L90.2971912,137.265227 L43.6628194,137.265227 L72.5329631,203.834137 L72.5329631,203.834137 Z" id="Shape" opacity="0.6" fill="#FFDE17"></path>
                    <path d="M119.183794,203.834137 L72.5329631,203.834137 L107.127759,74.3658694 L153.777842,74.3658694 L119.183794,203.834137 L119.183794,203.834137 Z" id="Shape" fill="#FFDE17"></path>
                    <path d="M223.281647,203.834137 L130.139336,203.834137 L137.628068,175.809375 L230.820502,175.809375 L223.281647,203.834137 L223.281647,203.834137 Z" id="Shape" opacity="0.6" fill="#FFDE17"></path>
                    <path d="M200.586527,114.514746 L211.313891,74.3658694 L164.802212,74.3164931 L140.690891,163.948601 L187.438978,163.948601 L176.719095,203.834137 L223.473167,203.834137 L247.085488,114.44517 L200.586527,114.514746 L200.586527,114.514746 Z" id="Shape" fill="#FFDE17"></path>
                    <path d="M250.46028,102.583648 L157.344902,102.583648 L164.93463,74.3666175 L257.987166,74.3666175 L250.46028,102.583648 L250.46028,102.583648 Z" id="Shape" opacity="0.6" fill="#FFDE17"></path>
                    <g id="Group" transform="translate(71.820000, 211.719375)" fill="#FFFFFF">
                        <path d="M4.5695475,1.03091625 L10.3345988,1.03166437 C11.0707538,1.03166437 11.7216225,1.1162025 12.287205,1.28752312 C12.8535356,1.45959187 13.31064,1.71171 13.6562738,2.04761812 C14.0019075,2.38203 14.2315819,2.79948375 14.3423044,3.29698687 C14.4530269,3.79673437 14.4201094,4.37952375 14.2435519,5.05059187 C14.118615,5.5271475 13.951035,5.93263125 13.7460488,6.26704312 C13.5388181,6.601455 13.340565,6.8797575 13.149045,7.104195 C12.91563,7.37202375 12.6732375,7.59571312 12.418875,7.774515 C12.6874519,7.98174562 12.9126375,8.24957437 13.0906913,8.57725312 C13.2365756,8.85929625 13.3443056,9.21764812 13.4153775,9.65006437 C13.4849531,10.0809844 13.4385694,10.6084125 13.2732338,11.233845 C13.0847062,11.9483044 12.7884488,12.5954325 12.3844613,13.1774737 C11.9804738,13.7565225 11.4934444,14.2510331 10.9211288,14.6602575 C10.3488131,15.0694819 9.69944063,15.3829462 8.971515,15.5984063 C8.24508563,15.8138662 7.47002813,15.9215962 6.64484625,15.9230925 L0.636654375,15.9215962 L4.5695475,1.03091625 L4.5695475,1.03091625 Z M6.64185375,12.4181269 C7.76104875,12.4181269 8.43510938,11.9849625 8.6632875,11.1223744 C8.89146563,10.2597862 8.444835,9.82662187 7.32638813,9.82662187 L6.7959675,9.82811812 L6.11292938,12.4181269 L6.64185375,12.4181269 L6.64185375,12.4181269 Z M9.558045,5.5630575 C9.73834313,4.87927125 9.46078875,4.53663 8.72538188,4.53663 L8.19496125,4.53663 L7.6518225,6.59023312 L8.181495,6.59023312 C8.91765,6.59098125 9.37699875,6.24684375 9.558045,5.5630575 L9.558045,5.5630575 L9.558045,5.5630575 Z" id="Shape"></path>
                        <path d="M16.96149,1.03166438 L22.0420069,1.03166438 C22.9846444,1.03166438 23.8232925,1.15884563 24.5594475,1.41096375 C25.2963506,1.66457813 25.8933544,2.03639625 26.351955,2.5286625 C26.8113038,3.01868437 27.11205,3.62616188 27.2526975,4.3481025 C27.393345,5.07004312 27.33948,5.89896562 27.0918506,6.83636625 C26.8950938,7.58224688 26.6257688,8.21366438 26.2816313,8.73435938 C25.9374938,9.25430625 25.5956006,9.6867225 25.2544556,10.0286156 C24.8572013,10.4153962 24.4397475,10.743075 24.0013463,11.0109037 L25.4654269,15.9223444 L19.9427681,15.9223444 L18.7315538,12.1488019 L17.7343031,15.9223444 L13.029345,15.9201 L16.96149,1.03166438 L16.96149,1.03166438 Z M19.732545,8.35431187 L19.9749375,8.35431187 C20.5360313,8.35431187 21.04326,8.229375 21.5003644,7.97576062 C21.9582169,7.72289437 22.2649481,7.2987075 22.4220544,6.70394812 C22.5791606,6.10844062 22.4961188,5.68500187 22.1729288,5.43063937 C21.8489906,5.17852125 21.408345,5.05208812 20.8479994,5.05208812 L20.6048588,5.05208812 L19.732545,8.35431187 L19.732545,8.35431187 Z" id="Shape"></path>
                        <path d="M35.2082587,1.03316062 L38.7424013,1.03316062 L40.3980019,15.9230925 L35.7588788,15.9230925 L35.6264606,14.5839487 L31.163895,14.5839487 L30.3244988,15.9230925 L25.6861238,15.9230925 L35.2082587,1.03316062 L35.2082587,1.03316062 Z M35.2553906,11.3026725 L34.9516519,8.69096813 L33.2676225,11.3026725 L35.2553906,11.3026725 L35.2553906,11.3026725 Z" id="Shape"></path>
                        <path d="M48.6423394,4.9406175 L44.5792725,4.9406175 L47.1131719,1.03390875 L56.5447838,1.03390875 L48.5188988,12.01788 L53.356275,12.0193762 L50.8433231,15.926085 L40.6164544,15.9238406 L48.6423394,4.9406175 L48.6423394,4.9406175 Z" id="Shape"></path>
                        <path d="M57.2076225,1.03390875 L62.2006087,1.03390875 L58.2662194,15.9253369 L53.2754775,15.9253369 L57.2076225,1.03390875 L57.2076225,1.03390875 Z" id="Shape"></path>
                        <path d="M63.746235,1.03465687 L68.6486981,1.03465687 L65.7482175,12.0193762 L69.8127806,12.0193762 L68.7811163,15.926085 L59.8125938,15.926085 L63.746235,1.03465687 L63.746235,1.03465687 Z" id="Shape"></path>
                        <path d="M70.6065413,12.3537881 L72.2187506,12.3545362 C72.6908175,12.3545362 73.0312144,12.2640131 73.2406894,12.0867075 C73.4486681,11.9086537 73.5967969,11.6550394 73.6835794,11.3266125 L76.4022656,1.03615313 L81.2628338,1.03615313 L78.325695,12.1540387 C77.9598619,13.53807 77.3890425,14.5121287 76.613985,15.0777112 C75.8381794,15.64479 74.7661163,15.926085 73.3970475,15.926085 L69.6639038,15.9253369 L70.6065413,12.3537881 L70.6065413,12.3537881 Z" id="Shape"></path>
                        <path d="M79.6326694,11.3049169 C79.9281788,11.4104025 80.2453838,11.4919481 80.5827881,11.5503019 C80.8588463,11.6266106 81.1775475,11.6857125 81.5418844,11.7306 C81.904725,11.7754875 82.2772913,11.7979312 82.6618275,11.7979312 C83.3381325,11.7979312 83.7436163,11.5435687 83.8790269,11.0378362 C83.9291513,10.8433237 83.8782788,10.647315 83.7256613,10.4460694 C83.5722956,10.2455719 83.3688056,10.0226306 83.1181838,9.7764975 C82.8653175,9.5311125 82.598985,9.258795 82.3169419,8.96104125 C82.0341506,8.66403563 81.7865213,8.3221425 81.5718094,7.93386562 C81.3585938,7.54633687 81.2112131,7.11092813 81.1334081,6.62763938 C81.0556031,6.14435062 81.0982463,5.58924187 81.2620856,4.9645575 C81.4483688,4.26506063 81.7378931,3.6478575 82.1284144,3.11145188 C82.5196838,2.57579438 82.9842694,2.12841563 83.520675,1.77230813 C84.0570806,1.41395625 84.6466031,1.143135 85.2937313,0.956851875 C85.9378669,0.77056875 86.5999575,0.67780125 87.2770106,0.678549375 C87.6316219,0.67780125 87.9795,0.696504375 88.3228894,0.733910625 C88.6647825,0.772065 88.97301,0.80348625 89.2453275,0.834159375 C89.5572956,0.879795 89.8625306,0.923934375 90.1595363,0.968821875 L89.0560519,5.14261125 C88.9438331,5.12764875 88.8136594,5.11343437 88.6707675,5.09922 C88.5563044,5.08350938 88.4268788,5.06854688 88.2832388,5.05358438 C88.1403469,5.03787375 87.9884775,5.03114062 87.8261344,5.03114062 C87.7393519,5.03114062 87.6256369,5.03488125 87.4924706,5.04311062 C87.3578081,5.05059188 87.2276344,5.06854688 87.1026975,5.09772375 C86.9755163,5.12764875 86.8588088,5.18076563 86.752575,5.25483 C86.6433488,5.32889437 86.5722769,5.43288375 86.537115,5.56679812 C86.5056938,5.68649812 86.5662919,5.83387875 86.7174131,6.014925 C86.8692825,6.19223062 87.0555656,6.40170562 87.2807513,6.63886125 C87.5059369,6.87751312 87.7498256,7.152075 88.0131656,7.46479125 C88.2757575,7.77900375 88.4979506,8.13585937 88.6789969,8.53685437 C88.859295,8.93934562 88.9842319,9.39270937 89.0485706,9.89844187 C89.1129094,10.4041744 89.0642813,10.970505 88.8981975,11.5951894 C88.7261288,12.251295 88.4597963,12.8640094 88.1029406,13.4378212 C87.746085,14.0116331 87.2934694,14.5106325 86.74659,14.9333231 C86.2004588,15.3582581 85.5548269,15.6934181 84.8141831,15.938055 C84.0720431,16.18344 83.2378838,16.3061325 82.3094606,16.3061325 C81.7483669,16.3061325 81.2366494,16.2806962 80.7720638,16.2283275 C80.30673,16.1752106 79.89975,16.1123681 79.5511238,16.0375556 C79.1441438,15.9612469 78.7775625,15.8737162 78.45138,15.7697269 L79.6326694,11.3049169 L79.6326694,11.3049169 Z" id="Shape"></path>
                        <path d="M94.7986594,8.49346312 C95.11362,7.30319625 95.6036419,6.22814062 96.2702213,5.2668 C96.9360525,4.30845188 97.7126063,3.4862625 98.6013788,2.80172813 C99.4879069,2.11794188 100.451492,1.59350625 101.489141,1.226925 C102.529035,0.864084375 103.578654,0.68079375 104.638748,0.68079375 C105.478892,0.68079375 106.203825,0.763835625 106.816539,0.927675 C107.427758,1.09076625 107.941719,1.27704938 108.358425,1.48577625 C108.840218,1.72293188 109.243457,1.9840275 109.566647,2.26681875 L106.155197,6.39721688 C105.966669,6.21766687 105.753454,6.0478425 105.517046,5.883255 C105.297846,5.76505125 105.030765,5.64834375 104.714308,5.53762125 C104.397851,5.42615063 104.017804,5.36929312 103.57641,5.36929312 C103.120054,5.36929312 102.67866,5.45083875 102.252229,5.61467813 C101.825798,5.7785175 101.430788,6.00220687 101.070939,6.28350187 C100.708847,6.56778937 100.396879,6.89920875 100.134287,7.27776 C99.8709469,7.65631125 99.6831675,8.06329125 99.5702006,8.49421125 C99.4557375,8.9266275 99.4325456,9.33211125 99.5021213,9.71141062 C99.572445,10.0914581 99.7153369,10.4228775 99.9352856,10.7041725 C100.155234,10.9877119 100.442514,11.2114013 100.795629,11.3744925 C101.150241,11.5383319 101.562458,11.6198775 102.034524,11.6198775 C102.505843,11.6198775 102.940504,11.5607756 103.340751,11.4418238 C103.740249,11.3221237 104.083639,11.1882094 104.374659,11.0408287 C104.712812,10.8769894 105.021788,10.6824769 105.300838,10.4595356 L106.529259,14.5899338 C106.045971,14.9176125 105.496847,15.207885 104.886377,15.4600031 C104.358949,15.66873 103.742494,15.8624944 103.031775,16.0412962 C102.321056,16.21935 101.539266,16.3083769 100.684907,16.3083769 C99.536535,16.3083769 98.5265663,16.1183531 97.6542525,15.7390538 C96.7819388,15.3590063 96.0839381,14.8270894 95.5580063,14.142555 C95.0313263,13.4565244 94.6969144,12.6350831 94.5517781,11.6752388 C94.4111306,10.7146463 94.4926763,9.65530125 94.7986594,8.49346312 L94.7986594,8.49346312 L94.7986594,8.49346312 Z" id="Shape"></path>
                        <path d="M107.037236,8.49421125 C107.320027,7.42214812 107.78985,6.41068312 108.447452,5.45607562 C109.104306,4.50520875 109.874126,3.67479 110.761403,2.96856 C111.647182,2.26307812 112.616004,1.70497687 113.66712,1.29425625 C114.716739,0.88578 115.773092,0.681541875 116.833185,0.68229 C117.894774,0.68229 118.841153,0.886528125 119.673816,1.29500437 C120.509471,1.705725 121.183532,2.26307812 121.694501,2.97005625 C122.209211,3.67628625 122.541379,4.506705 122.694744,5.45832 C122.847362,6.41143125 122.783023,7.4243925 122.499484,8.4957075 C122.216693,9.56627437 121.745374,10.5792356 121.090764,11.5323469 C120.433162,12.4839619 119.661098,13.3143806 118.775318,14.0221069 C117.888789,14.7275887 116.920716,15.28569 115.868852,15.6941662 C114.819981,16.1041387 113.764376,16.3083769 112.703535,16.3083769 C111.643442,16.3083769 110.695568,16.1041387 109.861408,15.6941662 C109.026501,15.2849419 108.35244,14.7275887 107.840722,14.0198625 C107.329005,13.3136325 106.995341,12.4839619 106.841976,11.5308506 C106.687862,10.5784875 106.753697,9.56627437 107.037236,8.49421125 L107.037236,8.49421125 L107.037236,8.49421125 Z M111.675611,8.49421125 C111.561148,8.92737562 111.534964,9.33285937 111.597806,9.71141062 C111.659901,10.09071 111.793067,10.4221294 111.997305,10.7041725 C112.202291,10.9869637 112.471616,11.2106531 112.803036,11.3744925 C113.135951,11.5383319 113.514502,11.6198775 113.94243,11.6198775 C114.368861,11.6213737 114.7923,11.5383319 115.210502,11.3752406 C115.629452,11.2114012 116.016232,10.9869637 116.370844,10.7049206 C116.724707,10.4228775 117.034431,10.0914581 117.295526,9.71215875 C117.558118,9.3336075 117.746646,8.92812375 117.861109,8.49645562 C117.973328,8.06403937 118.00026,7.65855562 117.938914,7.28000437 C117.877567,6.900705 117.742157,6.56928562 117.540163,6.28574625 C117.333681,6.00220687 117.065104,5.7785175 116.733684,5.61617437 C116.402265,5.45083875 116.020721,5.36929312 115.59429,5.37004125 C115.167859,5.37004125 114.74442,5.45083875 114.326218,5.61617437 C113.905772,5.7785175 113.520488,6.00220687 113.165876,6.28499812 C112.810517,6.5685375 112.503786,6.89920875 112.241942,7.27850812 C111.977854,7.6578075 111.790074,8.06329125 111.675611,8.49421125 L111.675611,8.49421125 L111.675611,8.49421125 Z" id="Shape"></path>
                        <path d="M125.685,1.0383975 L129.549814,1.03989375 L132.097927,6.77726437 L133.615125,1.03989375 L138.231056,1.03989375 L134.296667,15.9298256 L130.409409,15.9305737 L127.87551,10.2148987 L126.366542,15.9298256 L121.749114,15.9298256 L125.685,1.0383975 L125.685,1.0383975 Z" id="Shape"></path>
                        <path d="M139.775934,1.03989375 L148.457177,1.04139 L147.425513,4.94809875 L143.449228,4.94735063 L143.013071,6.59921062 L146.923521,6.59921062 L145.944225,10.3054219 L142.034524,10.3054219 L140.549496,15.9313219 L135.843789,15.9313219 L139.775934,1.03989375 L139.775934,1.03989375 Z" id="Shape"></path>
                    </g>
                    <rect id="Rectangle-1" x="0" y="0" width="299.25" height="299.25"></rect>
                </g>
            </g>
        </g>
    </g>
</svg>