<?xml version="1.0" encoding="utf-8"?>
<!-- Generator: Adobe Illustrator 15.0.0, SVG Export Plug-In . SVG Version: 6.00 Build 0)  -->
<!DOCTYPE svg PUBLIC "-//W3C//DTD SVG 1.1//EN" "http://www.w3.org/Graphics/SVG/1.1/DTD/svg11.dtd">
<svg version="1.1" id="Layer_1" xmlns="http://www.w3.org/2000/svg" xmlns:xlink="http://www.w3.org/1999/xlink" x="0px" y="0px"
	 width="83px" height="135px" viewBox="0 0 83 135" style="enable-background:new 0 0 83 135;" xml:space="preserve">
<style type="text/css">
<![CDATA[
	.st0{fill:#E8F0F8;}
	.st1{clip-path:url(#SVGID_2_);}
	.st2{clip-path:url(#SVGID_4_);}
	.st3{fill:#008000;}
	.st4{fill:#00C800;}
	.st5{fill:#00F800;}
]]>
</style>
<g>
	<defs>
		<path id="SVGID_1_" d="M4.122,39.968c0-1.382,1.116-2.504,2.492-2.504h69.913c1.377,0,2.491,1.095,2.491,2.504v92.358
			c0,1.383-1.116,2.504-2.491,2.504H6.614c-1.378,0-2.492-1.093-2.492-2.504V39.968z"/>
	</defs>
	<clipPath id="SVGID_2_">
		<use xlink:href="#SVGID_1_"  style="overflow:visible;"/>
	</clipPath>
	<g class="st1">
		<g>
			<g>
				<rect x="7.122" y="127.214" class="st3" width="7" height="7"/>
			</g>
			<g>
				<rect x="7.122" y="122.214" class="st3" width="7" height="7"/>
			</g>
			<g>
				<rect x="7.122" y="117.214" class="st3" width="7" height="7"/>
			</g>
			<g>
				<rect x="7.122" y="112.214" class="st3" width="7" height="7"/>
			</g>
			<g>
				<rect x="7.122" y="107.214" class="st3" width="7" height="7"/>
			</g>
			<g>
				<rect x="7.122" y="102.214" class="st3" width="7" height="7"/>
			</g>
			<g>
				<rect x="7.122" y="97.214" class="st3" width="7" height="7"/>
			</g>
			<g>
				<rect x="7.122" y="92.214" class="st3" width="7" height="7"/>
			</g>
			<g>
				<rect x="7.122" y="87.214" class="st3" width="7" height="7"/>
			</g>
			<g>
				<rect x="7.122" y="82.214" class="st3" width="7" height="7"/>
			</g>
			<g>
				<rect x="7.122" y="77.214" class="st3" width="7" height="7"/>
			</g>
			<g>
				<rect x="7.122" y="72.214" class="st3" width="7" height="7"/>
			</g>
			<g>
				<rect x="7.122" y="67.214" class="st3" width="7" height="7"/>
			</g>
			<g>
				<rect x="7.122" y="62.214" class="st3" width="7" height="7"/>
			</g>
			<g>
				<rect x="7.122" y="57.214" class="st3" width="7" height="7"/>
			</g>
			<g>
				<rect x="7.122" y="52.214" class="st3" width="7" height="7"/>
			</g>
			<g>
				<rect x="7.122" y="47.214" class="st3" width="7" height="7"/>
			</g>
			<g>
				<rect x="7.122" y="42.214" class="st3" width="7" height="7"/>
			</g>
			<g>
				<rect x="7.122" y="37.214" class="st3" width="7" height="7"/>
			</g>
		</g>
		<g>
			<g>
				<rect x="5.122" y="127.214" width="2" height="7"/>
			</g>
			<g>
				<rect x="5.122" y="122.214" width="2" height="7"/>
			</g>
			<g>
				<rect x="5.122" y="117.214" width="2" height="7"/>
			</g>
			<g>
				<rect x="5.122" y="112.214" width="2" height="7"/>
			</g>
			<g>
				<rect x="5.122" y="107.214" width="2" height="7"/>
			</g>
			<g>
				<rect x="5.122" y="102.214" width="2" height="7"/>
			</g>
			<g>
				<rect x="5.122" y="97.214" width="2" height="7"/>
			</g>
			<g>
				<rect x="5.122" y="92.214" width="2" height="7"/>
			</g>
			<g>
				<rect x="5.122" y="87.214" width="2" height="7"/>
			</g>
			<g>
				<rect x="5.122" y="82.214" width="2" height="7"/>
			</g>
			<g>
				<rect x="5.122" y="77.214" width="2" height="7"/>
			</g>
			<g>
				<rect x="5.122" y="72.214" width="2" height="7"/>
			</g>
			<g>
				<rect x="5.122" y="67.214" width="2" height="7"/>
			</g>
			<g>
				<rect x="5.122" y="62.214" width="2" height="7"/>
			</g>
			<g>
				<rect x="5.122" y="57.214" width="2" height="7"/>
			</g>
			<g>
				<rect x="5.122" y="52.214" width="2" height="7"/>
			</g>
			<g>
				<rect x="5.122" y="47.214" width="2" height="7"/>
			</g>
			<g>
				<rect x="5.122" y="42.214" width="2" height="7"/>
			</g>
			<g>
				<rect x="5.122" y="37.214" width="2" height="7"/>
			</g>
		</g>
		<g>
			<g>
				<rect x="14.122" y="127.214" class="st4" width="5" height="7"/>
			</g>
			<g>
				<rect x="14.122" y="122.214" class="st4" width="5" height="7"/>
			</g>
			<g>
				<rect x="14.122" y="117.214" class="st4" width="5" height="7"/>
			</g>
			<g>
				<rect x="14.122" y="112.214" class="st4" width="5" height="7"/>
			</g>
			<g>
				<rect x="14.122" y="107.214" class="st4" width="5" height="7"/>
			</g>
			<g>
				<rect x="14.122" y="102.214" class="st4" width="5" height="7"/>
			</g>
			<g>
				<rect x="14.122" y="97.214" class="st4" width="5" height="7"/>
			</g>
			<g>
				<rect x="14.122" y="92.214" class="st4" width="5" height="7"/>
			</g>
			<g>
				<rect x="14.122" y="87.214" class="st4" width="5" height="7"/>
			</g>
			<g>
				<rect x="14.122" y="82.214" class="st4" width="5" height="7"/>
			</g>
			<g>
				<rect x="14.122" y="77.214" class="st4" width="5" height="7"/>
			</g>
			<g>
				<rect x="14.122" y="72.214" class="st4" width="5" height="7"/>
			</g>
			<g>
				<rect x="14.122" y="67.214" class="st4" width="5" height="7"/>
			</g>
			<g>
				<rect x="14.122" y="62.214" class="st4" width="5" height="7"/>
			</g>
			<g>
				<rect x="14.122" y="57.214" class="st4" width="5" height="7"/>
			</g>
			<g>
				<rect x="14.122" y="52.214" class="st4" width="5" height="7"/>
			</g>
			<g>
				<rect x="14.122" y="47.214" class="st4" width="5" height="7"/>
			</g>
			<g>
				<rect x="14.122" y="42.214" class="st4" width="5" height="7"/>
			</g>
			<g>
				<rect x="14.122" y="37.214" class="st4" width="5" height="7"/>
			</g>
		</g>
		<g>
			<g>
				<rect x="19.122" y="127.214" class="st5" width="5" height="7"/>
			</g>
			<g>
				<rect x="19.122" y="122.214" class="st5" width="5" height="7"/>
			</g>
			<g>
				<rect x="19.122" y="117.214" class="st5" width="5" height="7"/>
			</g>
			<g>
				<rect x="19.122" y="112.214" class="st5" width="5" height="7"/>
			</g>
			<g>
				<rect x="19.122" y="107.214" class="st5" width="5" height="7"/>
			</g>
			<g>
				<rect x="19.122" y="102.214" class="st5" width="5" height="7"/>
			</g>
			<g>
				<rect x="19.122" y="97.214" class="st5" width="5" height="7"/>
			</g>
			<g>
				<rect x="19.122" y="92.214" class="st5" width="5" height="7"/>
			</g>
			<g>
				<rect x="19.122" y="87.214" class="st5" width="5" height="7"/>
			</g>
			<g>
				<rect x="19.122" y="82.214" class="st5" width="5" height="7"/>
			</g>
			<g>
				<rect x="19.122" y="77.214" class="st5" width="5" height="7"/>
			</g>
			<g>
				<rect x="19.122" y="72.214" class="st5" width="5" height="7"/>
			</g>
			<g>
				<rect x="19.122" y="67.214" class="st5" width="5" height="7"/>
			</g>
			<g>
				<rect x="19.122" y="62.214" class="st5" width="5" height="7"/>
			</g>
			<g>
				<rect x="19.122" y="57.214" class="st5" width="5" height="7"/>
			</g>
			<g>
				<rect x="19.122" y="52.214" class="st5" width="5" height="7"/>
			</g>
			<g>
				<rect x="19.122" y="47.214" class="st5" width="5" height="7"/>
			</g>
			<g>
				<rect x="19.122" y="42.214" class="st5" width="5" height="7"/>
			</g>
			<g>
				<rect x="19.122" y="37.214" class="st5" width="5" height="7"/>
			</g>
		</g>
		<g>
			<g>
				<rect x="24.122" y="127.214" class="st0" width="8" height="7"/>
			</g>
			<g>
				<rect x="24.122" y="122.214" class="st0" width="8" height="7"/>
			</g>
			<g>
				<rect x="24.122" y="117.214" class="st0" width="8" height="7"/>
			</g>
			<g>
				<rect x="24.122" y="112.214" class="st0" width="8" height="7"/>
			</g>
			<g>
				<rect x="24.122" y="107.214" class="st0" width="8" height="7"/>
			</g>
			<g>
				<rect x="24.122" y="102.214" class="st0" width="8" height="7"/>
			</g>
			<g>
				<rect x="24.122" y="97.214" class="st0" width="8" height="7"/>
			</g>
			<g>
				<rect x="24.122" y="92.214" class="st0" width="8" height="7"/>
			</g>
			<g>
				<rect x="24.122" y="87.214" class="st0" width="8" height="7"/>
			</g>
			<g>
				<rect x="24.122" y="82.214" class="st0" width="8" height="7"/>
			</g>
			<g>
				<rect x="24.122" y="77.214" class="st0" width="8" height="7"/>
			</g>
			<g>
				<rect x="24.122" y="72.214" class="st0" width="8" height="7"/>
			</g>
			<g>
				<rect x="24.122" y="67.214" class="st0" width="8" height="7"/>
			</g>
			<g>
				<rect x="24.122" y="62.214" class="st0" width="8" height="7"/>
			</g>
			<g>
				<rect x="24.122" y="57.214" class="st0" width="8" height="7"/>
			</g>
			<g>
				<rect x="24.122" y="52.214" class="st0" width="8" height="7"/>
			</g>
			<g>
				<rect x="24.122" y="47.214" class="st0" width="8" height="7"/>
			</g>
			<g>
				<rect x="24.122" y="42.214" class="st0" width="8" height="7"/>
			</g>
			<g>
				<rect x="24.122" y="37.214" class="st0" width="8" height="7"/>
			</g>
		</g>
		<g>
			<g>
				<rect x="32.122" y="127.214" class="st5" width="12" height="7"/>
			</g>
			<g>
				<rect x="32.122" y="122.214" class="st5" width="12" height="7"/>
			</g>
			<g>
				<rect x="32.122" y="117.214" class="st5" width="12" height="7"/>
			</g>
			<g>
				<rect x="32.122" y="112.214" class="st5" width="12" height="7"/>
			</g>
			<g>
				<rect x="32.122" y="107.214" class="st5" width="12" height="7"/>
			</g>
			<g>
				<rect x="32.122" y="102.214" class="st5" width="12" height="7"/>
			</g>
			<g>
				<rect x="32.122" y="97.214" class="st5" width="12" height="7"/>
			</g>
			<g>
				<rect x="32.122" y="92.214" class="st5" width="12" height="7"/>
			</g>
			<g>
				<rect x="32.122" y="87.214" class="st5" width="12" height="7"/>
			</g>
			<g>
				<rect x="32.122" y="82.214" class="st5" width="12" height="7"/>
			</g>
			<g>
				<rect x="32.122" y="77.214" class="st5" width="12" height="7"/>
			</g>
			<g>
				<rect x="32.122" y="72.214" class="st5" width="12" height="7"/>
			</g>
			<g>
				<rect x="32.122" y="67.214" class="st5" width="12" height="7"/>
			</g>
			<g>
				<rect x="32.122" y="62.214" class="st5" width="12" height="7"/>
			</g>
			<g>
				<rect x="32.122" y="57.214" class="st5" width="12" height="7"/>
			</g>
			<g>
				<rect x="32.122" y="52.214" class="st5" width="12" height="7"/>
			</g>
			<g>
				<rect x="32.122" y="47.214" class="st5" width="12" height="7"/>
			</g>
			<g>
				<rect x="32.122" y="42.214" class="st5" width="12" height="7"/>
			</g>
			<g>
				<rect x="32.122" y="37.214" class="st5" width="12" height="7"/>
			</g>
		</g>
		<g>
			<g>
				<rect x="44.122" y="127.214" class="st4" width="10" height="7"/>
			</g>
			<g>
				<rect x="44.122" y="122.214" class="st4" width="10" height="7"/>
			</g>
			<g>
				<rect x="44.122" y="117.214" class="st4" width="10" height="7"/>
			</g>
			<g>
				<rect x="44.122" y="112.214" class="st4" width="10" height="7"/>
			</g>
			<g>
				<rect x="44.122" y="107.214" class="st4" width="10" height="7"/>
			</g>
			<g>
				<rect x="44.122" y="102.214" class="st4" width="10" height="7"/>
			</g>
			<g>
				<rect x="44.122" y="97.214" class="st4" width="10" height="7"/>
			</g>
			<g>
				<rect x="44.122" y="92.214" class="st4" width="10" height="7"/>
			</g>
			<g>
				<rect x="44.122" y="87.214" class="st4" width="10" height="7"/>
			</g>
			<g>
				<rect x="44.122" y="82.214" class="st4" width="10" height="7"/>
			</g>
			<g>
				<rect x="44.122" y="77.214" class="st4" width="10" height="7"/>
			</g>
			<g>
				<rect x="44.122" y="72.214" class="st4" width="10" height="7"/>
			</g>
			<g>
				<rect x="44.122" y="67.214" class="st4" width="10" height="7"/>
			</g>
			<g>
				<rect x="44.122" y="62.214" class="st4" width="10" height="7"/>
			</g>
			<g>
				<rect x="44.122" y="57.214" class="st4" width="10" height="7"/>
			</g>
			<g>
				<rect x="44.122" y="52.214" class="st4" width="10" height="7"/>
			</g>
			<g>
				<rect x="44.122" y="47.214" class="st4" width="10" height="7"/>
			</g>
			<g>
				<rect x="44.122" y="42.214" class="st4" width="10" height="7"/>
			</g>
			<g>
				<rect x="44.122" y="37.214" class="st4" width="10" height="7"/>
			</g>
		</g>
		<g>
			<g>
				<rect x="57.122" y="127.214" class="st4" width="3" height="7"/>
			</g>
			<g>
				<rect x="57.122" y="122.214" class="st4" width="3" height="7"/>
			</g>
			<g>
				<rect x="57.122" y="117.214" class="st4" width="3" height="7"/>
			</g>
			<g>
				<rect x="57.122" y="112.214" class="st4" width="3" height="7"/>
			</g>
			<g>
				<rect x="57.122" y="107.214" class="st4" width="3" height="7"/>
			</g>
			<g>
				<rect x="57.122" y="102.214" class="st4" width="3" height="7"/>
			</g>
			<g>
				<rect x="57.122" y="97.214" class="st4" width="3" height="7"/>
			</g>
			<g>
				<rect x="57.122" y="92.214" class="st4" width="3" height="7"/>
			</g>
			<g>
				<rect x="57.122" y="87.214" class="st4" width="3" height="7"/>
			</g>
			<g>
				<rect x="57.122" y="82.214" class="st4" width="3" height="7"/>
			</g>
			<g>
				<rect x="57.122" y="77.214" class="st4" width="3" height="7"/>
			</g>
			<g>
				<rect x="57.122" y="72.214" class="st4" width="3" height="7"/>
			</g>
			<g>
				<rect x="57.122" y="67.214" class="st4" width="3" height="7"/>
			</g>
			<g>
				<rect x="57.122" y="62.214" class="st4" width="3" height="7"/>
			</g>
			<g>
				<rect x="57.122" y="57.214" class="st4" width="3" height="7"/>
			</g>
			<g>
				<rect x="57.122" y="52.214" class="st4" width="3" height="7"/>
			</g>
			<g>
				<rect x="57.122" y="47.214" class="st4" width="3" height="7"/>
			</g>
			<g>
				<rect x="57.122" y="42.214" class="st4" width="3" height="7"/>
			</g>
			<g>
				<rect x="57.122" y="37.214" class="st4" width="3" height="7"/>
			</g>
		</g>
		<g>
			<g>
				<rect x="54.122" y="127.214" class="st3" width="3" height="7"/>
			</g>
			<g>
				<rect x="54.122" y="122.214" class="st3" width="3" height="7"/>
			</g>
			<g>
				<rect x="54.122" y="117.214" class="st3" width="3" height="7"/>
			</g>
			<g>
				<rect x="54.122" y="112.214" class="st3" width="3" height="7"/>
			</g>
			<g>
				<rect x="54.122" y="107.214" class="st3" width="3" height="7"/>
			</g>
			<g>
				<rect x="54.122" y="102.214" class="st3" width="3" height="7"/>
			</g>
			<g>
				<rect x="54.122" y="97.214" class="st3" width="3" height="7"/>
			</g>
			<g>
				<rect x="54.122" y="92.214" class="st3" width="3" height="7"/>
			</g>
			<g>
				<rect x="54.122" y="87.214" class="st3" width="3" height="7"/>
			</g>
			<g>
				<rect x="54.122" y="82.214" class="st3" width="3" height="7"/>
			</g>
			<g>
				<rect x="54.122" y="77.214" class="st3" width="3" height="7"/>
			</g>
			<g>
				<rect x="54.122" y="72.214" class="st3" width="3" height="7"/>
			</g>
			<g>
				<rect x="54.122" y="67.214" class="st3" width="3" height="7"/>
			</g>
			<g>
				<rect x="54.122" y="62.214" class="st3" width="3" height="7"/>
			</g>
			<g>
				<rect x="54.122" y="57.214" class="st3" width="3" height="7"/>
			</g>
			<g>
				<rect x="54.122" y="52.214" class="st3" width="3" height="7"/>
			</g>
			<g>
				<rect x="54.122" y="47.214" class="st3" width="3" height="7"/>
			</g>
			<g>
				<rect x="54.122" y="42.214" class="st3" width="3" height="7"/>
			</g>
			<g>
				<rect x="54.122" y="37.214" class="st3" width="3" height="7"/>
			</g>
		</g>
		<g>
			<g>
				<rect x="60.122" y="127.214" class="st3" width="12" height="7"/>
			</g>
			<g>
				<rect x="60.122" y="122.214" class="st3" width="12" height="7"/>
			</g>
			<g>
				<rect x="60.122" y="117.214" class="st3" width="12" height="7"/>
			</g>
			<g>
				<rect x="60.122" y="112.214" class="st3" width="12" height="7"/>
			</g>
			<g>
				<rect x="60.122" y="107.214" class="st3" width="12" height="7"/>
			</g>
			<g>
				<rect x="60.122" y="102.214" class="st3" width="12" height="7"/>
			</g>
			<g>
				<rect x="60.122" y="97.214" class="st3" width="12" height="7"/>
			</g>
			<g>
				<rect x="60.122" y="92.214" class="st3" width="12" height="7"/>
			</g>
			<g>
				<rect x="60.122" y="87.214" class="st3" width="12" height="7"/>
			</g>
			<g>
				<rect x="60.122" y="82.214" class="st3" width="12" height="7"/>
			</g>
			<g>
				<rect x="60.122" y="77.214" class="st3" width="12" height="7"/>
			</g>
			<g>
				<rect x="60.122" y="72.214" class="st3" width="12" height="7"/>
			</g>
			<g>
				<rect x="60.122" y="67.214" class="st3" width="12" height="7"/>
			</g>
			<g>
				<rect x="60.122" y="62.214" class="st3" width="12" height="7"/>
			</g>
			<g>
				<rect x="60.122" y="57.214" class="st3" width="12" height="7"/>
			</g>
			<g>
				<rect x="60.122" y="52.214" class="st3" width="12" height="7"/>
			</g>
			<g>
				<rect x="60.122" y="47.214" class="st3" width="12" height="7"/>
			</g>
			<g>
				<rect x="60.122" y="42.214" class="st3" width="12" height="7"/>
			</g>
			<g>
				<rect x="60.122" y="37.214" class="st3" width="12" height="7"/>
			</g>
		</g>
		<g>
			<g>
				<rect x="72.122" y="127.214" width="7" height="7"/>
			</g>
			<g>
				<rect x="72.122" y="122.214" width="7" height="7"/>
			</g>
			<g>
				<rect x="72.122" y="117.214" width="7" height="7"/>
			</g>
			<g>
				<rect x="72.122" y="112.214" width="7" height="7"/>
			</g>
			<g>
				<rect x="72.122" y="107.214" width="7" height="7"/>
			</g>
			<g>
				<rect x="72.122" y="102.214" width="7" height="7"/>
			</g>
			<g>
				<rect x="72.122" y="97.214" width="7" height="7"/>
			</g>
			<g>
				<rect x="72.122" y="92.214" width="7" height="7"/>
			</g>
			<g>
				<rect x="72.122" y="87.214" width="7" height="7"/>
			</g>
			<g>
				<rect x="72.122" y="82.214" width="7" height="7"/>
			</g>
			<g>
				<rect x="72.122" y="77.214" width="7" height="7"/>
			</g>
			<g>
				<rect x="72.122" y="72.214" width="7" height="7"/>
			</g>
			<g>
				<rect x="72.122" y="67.214" width="7" height="7"/>
			</g>
			<g>
				<rect x="72.122" y="62.214" width="7" height="7"/>
			</g>
			<g>
				<rect x="72.122" y="57.214" width="7" height="7"/>
			</g>
			<g>
				<rect x="72.122" y="52.214" width="7" height="7"/>
			</g>
			<g>
				<rect x="72.122" y="47.214" width="7" height="7"/>
			</g>
			<g>
				<rect x="72.122" y="42.214" width="7" height="7"/>
			</g>
			<g>
				<rect x="72.122" y="37.214" width="7" height="7"/>
			</g>
		</g>
	</g>
	<use xlink:href="#SVGID_1_"  style="overflow:visible;fill:none;stroke:#000000;stroke-width:2;stroke-miterlimit:10;"/>
</g>
<g>
	<defs>
		<path id="SVGID_3_" d="M1.257,3.709c0-1.487,1.201-2.696,2.682-2.696h75.264c1.482,0,2.682,1.18,2.682,2.696v34.426
			c0,1.488-1.201,2.695-2.682,2.695H3.938c-1.482,0-2.682-1.176-2.682-2.695V3.709z"/>
	</defs>
	<clipPath id="SVGID_4_">
		<use xlink:href="#SVGID_3_"  style="overflow:visible;"/>
	</clipPath>
	<g class="st2">
		<g>
			<g>
				<rect x="4.122" y="35.214" class="st3" width="8" height="6"/>
			</g>
			<g>
				<rect x="4.122" y="30.214" class="st3" width="8" height="6"/>
			</g>
			<g>
				<rect x="4.122" y="25.214" class="st3" width="8" height="6"/>
			</g>
			<g>
				<rect x="4.122" y="20.214" class="st3" width="8" height="6"/>
			</g>
			<g>
				<rect x="4.122" y="15.214" class="st3" width="8" height="6"/>
			</g>
			<g>
				<rect x="4.122" y="10.214" class="st3" width="8" height="6"/>
			</g>
			<g>
				<rect x="4.122" y="5.214" class="st3" width="8" height="6"/>
			</g>
			<g>
				<rect x="4.122" y="0.214" class="st3" width="8" height="6"/>
			</g>
		</g>
		<g>
			<g>
				<rect x="2.122" y="35.214" width="2" height="6"/>
			</g>
			<g>
				<rect x="2.122" y="30.214" width="2" height="6"/>
			</g>
			<g>
				<rect x="2.122" y="25.214" width="2" height="6"/>
			</g>
			<g>
				<rect x="2.122" y="20.214" width="2" height="6"/>
			</g>
			<g>
				<rect x="2.122" y="15.214" width="2" height="6"/>
			</g>
			<g>
				<rect x="2.122" y="10.214" width="2" height="6"/>
			</g>
			<g>
				<rect x="2.122" y="5.214" width="2" height="6"/>
			</g>
			<g>
				<rect x="2.122" y="0.214" width="2" height="6"/>
			</g>
		</g>
		<g>
			<g>
				<rect x="12.122" y="35.214" class="st4" width="5" height="6"/>
			</g>
			<g>
				<rect x="12.122" y="30.214" class="st4" width="5" height="6"/>
			</g>
			<g>
				<rect x="12.122" y="25.214" class="st4" width="5" height="6"/>
			</g>
			<g>
				<rect x="12.122" y="20.214" class="st4" width="5" height="6"/>
			</g>
			<g>
				<rect x="12.122" y="15.214" class="st4" width="5" height="6"/>
			</g>
			<g>
				<rect x="12.122" y="10.214" class="st4" width="5" height="6"/>
			</g>
			<g>
				<rect x="12.122" y="5.214" class="st4" width="5" height="6"/>
			</g>
			<g>
				<rect x="12.122" y="0.214" class="st4" width="5" height="6"/>
			</g>
		</g>
		<g>
			<g>
				<rect x="17.122" y="35.214" class="st5" width="6" height="6"/>
			</g>
			<g>
				<rect x="17.122" y="30.214" class="st5" width="6" height="6"/>
			</g>
			<g>
				<rect x="17.122" y="25.214" class="st5" width="6" height="6"/>
			</g>
			<g>
				<rect x="17.122" y="20.214" class="st5" width="6" height="6"/>
			</g>
			<g>
				<rect x="17.122" y="15.214" class="st5" width="6" height="6"/>
			</g>
			<g>
				<rect x="17.122" y="10.214" class="st5" width="6" height="6"/>
			</g>
			<g>
				<rect x="17.122" y="5.214" class="st5" width="6" height="6"/>
			</g>
			<g>
				<rect x="17.122" y="0.214" class="st5" width="6" height="6"/>
			</g>
		</g>
		<g>
			<g>
				<rect x="23.122" y="35.214" class="st0" width="8" height="6"/>
			</g>
			<g>
				<rect x="23.122" y="30.214" class="st0" width="8" height="6"/>
			</g>
			<g>
				<rect x="23.122" y="25.214" class="st0" width="8" height="6"/>
			</g>
			<g>
				<rect x="23.122" y="20.214" class="st0" width="8" height="6"/>
			</g>
			<g>
				<rect x="23.122" y="15.214" class="st0" width="8" height="6"/>
			</g>
			<g>
				<rect x="23.122" y="10.214" class="st0" width="8" height="6"/>
			</g>
			<g>
				<rect x="23.122" y="5.214" class="st0" width="8" height="6"/>
			</g>
			<g>
				<rect x="23.122" y="0.214" class="st0" width="8" height="6"/>
			</g>
		</g>
		<g>
			<g>
				<rect x="31.122" y="35.214" class="st5" width="13" height="6"/>
			</g>
			<g>
				<rect x="31.122" y="30.214" class="st5" width="13" height="6"/>
			</g>
			<g>
				<rect x="31.122" y="25.214" class="st5" width="13" height="6"/>
			</g>
			<g>
				<rect x="31.122" y="20.214" class="st5" width="13" height="6"/>
			</g>
			<g>
				<rect x="31.122" y="15.214" class="st5" width="13" height="6"/>
			</g>
			<g>
				<rect x="31.122" y="10.214" class="st5" width="13" height="6"/>
			</g>
			<g>
				<rect x="31.122" y="5.214" class="st5" width="13" height="6"/>
			</g>
			<g>
				<rect x="31.122" y="0.214" class="st5" width="13" height="6"/>
			</g>
		</g>
		<g>
			<g>
				<rect x="44.122" y="35.214" class="st4" width="11" height="6"/>
			</g>
			<g>
				<rect x="44.122" y="30.214" class="st4" width="11" height="6"/>
			</g>
			<g>
				<rect x="44.122" y="25.214" class="st4" width="11" height="6"/>
			</g>
			<g>
				<rect x="44.122" y="20.214" class="st4" width="11" height="6"/>
			</g>
			<g>
				<rect x="44.122" y="15.214" class="st4" width="11" height="6"/>
			</g>
			<g>
				<rect x="44.122" y="10.214" class="st4" width="11" height="6"/>
			</g>
			<g>
				<rect x="44.122" y="5.214" class="st4" width="11" height="6"/>
			</g>
			<g>
				<rect x="44.122" y="0.214" class="st4" width="11" height="6"/>
			</g>
		</g>
		<g>
			<g>
				<rect x="58.122" y="35.214" class="st4" width="3" height="6"/>
			</g>
			<g>
				<rect x="58.122" y="30.214" class="st4" width="3" height="6"/>
			</g>
			<g>
				<rect x="58.122" y="25.214" class="st4" width="3" height="6"/>
			</g>
			<g>
				<rect x="58.122" y="20.214" class="st4" width="3" height="6"/>
			</g>
			<g>
				<rect x="58.122" y="15.214" class="st4" width="3" height="6"/>
			</g>
			<g>
				<rect x="58.122" y="10.214" class="st4" width="3" height="6"/>
			</g>
			<g>
				<rect x="58.122" y="5.214" class="st4" width="3" height="6"/>
			</g>
			<g>
				<rect x="58.122" y="0.214" class="st4" width="3" height="6"/>
			</g>
		</g>
		<g>
			<g>
				<rect x="55.122" y="35.214" class="st3" width="3" height="6"/>
			</g>
			<g>
				<rect x="55.122" y="30.214" class="st3" width="3" height="6"/>
			</g>
			<g>
				<rect x="55.122" y="25.214" class="st3" width="3" height="6"/>
			</g>
			<g>
				<rect x="55.122" y="20.214" class="st3" width="3" height="6"/>
			</g>
			<g>
				<rect x="55.122" y="15.214" class="st3" width="3" height="6"/>
			</g>
			<g>
				<rect x="55.122" y="10.214" class="st3" width="3" height="6"/>
			</g>
			<g>
				<rect x="55.122" y="5.214" class="st3" width="3" height="6"/>
			</g>
			<g>
				<rect x="55.122" y="0.214" class="st3" width="3" height="6"/>
			</g>
		</g>
		<g>
			<g>
				<rect x="61.122" y="35.214" class="st3" width="13" height="6"/>
			</g>
			<g>
				<rect x="61.122" y="30.214" class="st3" width="13" height="6"/>
			</g>
			<g>
				<rect x="61.122" y="25.214" class="st3" width="13" height="6"/>
			</g>
			<g>
				<rect x="61.122" y="20.214" class="st3" width="13" height="6"/>
			</g>
			<g>
				<rect x="61.122" y="15.214" class="st3" width="13" height="6"/>
			</g>
			<g>
				<rect x="61.122" y="10.214" class="st3" width="13" height="6"/>
			</g>
			<g>
				<rect x="61.122" y="5.214" class="st3" width="13" height="6"/>
			</g>
			<g>
				<rect x="61.122" y="0.214" class="st3" width="13" height="6"/>
			</g>
		</g>
		<g>
			<g>
				<rect x="74.122" y="35.214" width="8" height="6"/>
			</g>
			<g>
				<rect x="74.122" y="30.214" width="8" height="6"/>
			</g>
			<g>
				<rect x="74.122" y="25.214" width="8" height="6"/>
			</g>
			<g>
				<rect x="74.122" y="20.214" width="8" height="6"/>
			</g>
			<g>
				<rect x="74.122" y="15.214" width="8" height="6"/>
			</g>
			<g>
				<rect x="74.122" y="10.214" width="8" height="6"/>
			</g>
			<g>
				<rect x="74.122" y="5.214" width="8" height="6"/>
			</g>
			<g>
				<rect x="74.122" y="0.214" width="8" height="6"/>
			</g>
		</g>
	</g>
	<use xlink:href="#SVGID_3_"  style="overflow:visible;fill:none;stroke:#000000;stroke-width:2;stroke-miterlimit:10;"/>
</g>
</svg>
